<svg width="64" height="64" viewBox="0 0 64 64" fill="none" xmlns="http://www.w3.org/2000/svg">
<path d="M11.5 11C11.5 8.51472 13.5147 6.5 16 6.5H51C51.8284 6.5 52.5 7.17157 52.5 8V49.5H11.5V11Z" fill="#FF7051" stroke="black" stroke-width="3"/>
<path d="M11.5 51.5C11.5 48.1863 14.1863 45.5 17.5 45.5H51C51.8284 45.5 52.5 46.1716 52.5 47V56C52.5 56.8284 51.8284 57.5 51 57.5H17.5C14.1863 57.5 11.5 54.8137 11.5 51.5Z" fill="#FFF4D9" stroke="black" stroke-width="3"/>
<path d="M37.5 51.5H51.5" stroke="black" stroke-width="3" stroke-linecap="round"/>
<path d="M21.5 51.5H28.5" stroke="black" stroke-width="3" stroke-linecap="round"/>
<rect x="22.5" y="14.5" width="19" height="11" rx="1.5" fill="#FFF4D9" stroke="black" stroke-width="3"/>
</svg>
