<svg width="268" height="188" viewBox="0 0 268 188" fill="none" xmlns="http://www.w3.org/2000/svg">
<path d="M255.877 108.529C255.549 108.529 223.149 107.945 222.277 107.945C221.405 107.945 218.637 107.945 217.357 106.673C216.077 105.401 213.357 101.577 213.261 101.409C213.23 101.361 213.207 101.307 213.196 101.251C213.185 101.195 213.186 101.137 213.197 101.081L221.597 66.0407C221.622 65.938 221.686 65.8492 221.776 65.7938C221.866 65.7383 221.975 65.7207 222.077 65.7447C222.129 65.756 222.177 65.7775 222.22 65.8079C222.263 65.8383 222.3 65.8771 222.327 65.9219C222.355 65.9667 222.373 66.0166 222.381 66.0686C222.389 66.1207 222.386 66.1738 222.373 66.2247L214.029 101.089C214.557 101.825 216.933 105.089 217.933 106.105C218.933 107.121 221.461 107.145 222.285 107.145C223.109 107.145 251.813 107.657 255.533 107.721L261.933 65.2087C261.948 65.1027 262.005 65.0068 262.09 64.9423C262.176 64.8778 262.283 64.8499 262.389 64.8647C262.496 64.8796 262.591 64.936 262.656 65.0215C262.72 65.107 262.748 65.2147 262.733 65.3207L256.293 108.185C256.28 108.284 256.229 108.374 256.152 108.437C256.075 108.501 255.977 108.534 255.877 108.529Z" fill="#B3B3B3"/>
<path d="M229.005 59.9208L226.341 59.8728C226.235 59.8707 226.133 59.8268 226.058 59.7505C225.983 59.6742 225.941 59.5716 225.941 59.4648C225.951 59.3613 225.997 59.2647 226.072 59.1927C226.147 59.1207 226.246 59.0781 226.349 59.0728L229.021 59.1208C229.127 59.1208 229.229 59.1629 229.304 59.2379C229.379 59.3129 229.421 59.4147 229.421 59.5208C229.421 59.6268 229.379 59.7286 229.304 59.8036C229.229 59.8786 229.127 59.9208 229.021 59.9208H229.005Z" fill="#B3B3B3"/>
<path d="M215.333 102.153C215.227 102.153 215.126 102.111 215.051 102.036C214.976 101.961 214.933 101.859 214.933 101.753C214.933 101.647 214.976 101.545 215.051 101.47C215.126 101.395 215.227 101.353 215.333 101.353L250.333 101.241L257.717 60.4407L232.269 59.9768C232.165 59.9747 232.065 59.9316 231.992 59.8568C231.918 59.782 231.877 59.6815 231.877 59.5768C231.888 59.473 231.935 59.3763 232.009 59.3033C232.084 59.2303 232.181 59.1855 232.285 59.1768L258.197 59.6488C258.256 59.6502 258.314 59.6646 258.366 59.6909C258.419 59.7171 258.465 59.7547 258.501 59.8008C258.537 59.8452 258.564 59.8965 258.579 59.9516C258.594 60.0067 258.597 60.0642 258.589 60.1208L251.061 101.721C251.046 101.813 250.998 101.897 250.926 101.957C250.854 102.018 250.763 102.05 250.669 102.049L215.333 102.169V102.153Z" fill="#B3B3B3"/>
<path d="M254.133 106.497L220.253 105.633C220.144 105.624 220.042 105.576 219.965 105.497L217.069 102.297C216.996 102.221 216.954 102.119 216.954 102.013C216.954 101.907 216.996 101.805 217.069 101.729C217.106 101.692 217.149 101.662 217.198 101.642C217.246 101.622 217.297 101.611 217.349 101.611C217.402 101.611 217.453 101.622 217.501 101.642C217.549 101.662 217.593 101.692 217.629 101.729L220.413 104.785L253.773 105.641L259.821 68.9928L257.333 65.4968C257.301 65.4547 257.278 65.4065 257.265 65.3551C257.252 65.3037 257.249 65.2503 257.258 65.1979C257.266 65.1456 257.285 65.0955 257.313 65.0506C257.341 65.0057 257.378 64.967 257.421 64.9368C257.464 64.9061 257.513 64.8842 257.565 64.8724C257.616 64.8606 257.669 64.8591 257.721 64.8681C257.774 64.877 257.823 64.8961 257.868 64.9244C257.913 64.9527 257.951 64.9895 257.981 65.0328L260.637 68.7048C260.698 68.7937 260.721 68.9029 260.701 69.0088L254.573 106.161C254.558 106.263 254.503 106.355 254.421 106.417C254.339 106.48 254.236 106.508 254.133 106.497Z" fill="#B3B3B3"/>
<path d="M223.285 103.881H228.189C228.189 103.881 227.389 107.769 226.965 111.441C226.541 115.113 226.349 119.825 226.349 119.825L223.493 114.505L220.013 119.009L223.285 103.881Z" fill="#B3B3B3"/>
<path d="M16.6054 111.961C16.5262 111.961 16.4486 111.938 16.383 111.894C16.3173 111.85 16.2665 111.786 16.2374 111.713C16.1973 111.614 16.1974 111.503 16.2378 111.405C16.2782 111.306 16.3556 111.227 16.4534 111.185L37.1654 102.841C37.6015 101.624 37.9727 100.385 38.2774 99.1287C38.3734 98.5687 38.0294 97.7288 37.2614 96.6488C36.9654 96.2328 27.1654 81.9207 25.5814 79.6167L1.74142 91.6968C1.69535 91.7216 1.64476 91.737 1.59264 91.742C1.54052 91.747 1.48793 91.7415 1.43797 91.7259C1.38801 91.7102 1.34169 91.6847 1.30175 91.6508C1.26181 91.617 1.22905 91.5755 1.20542 91.5287C1.18067 91.4816 1.16559 91.43 1.16106 91.3769C1.15653 91.3238 1.16264 91.2704 1.17903 91.2197C1.19543 91.1691 1.22177 91.1222 1.25652 91.0818C1.29128 91.0415 1.33374 91.0085 1.38142 90.9848L25.5334 78.7448C25.6201 78.702 25.7191 78.6914 25.8129 78.7148C25.9067 78.7383 25.9891 78.7942 26.0454 78.8728C26.1654 79.0408 37.6054 95.7528 37.9094 96.1848C38.4934 96.9848 39.2454 98.2088 39.0694 99.2568C38.8934 100.305 37.9094 103.153 37.8694 103.257C37.8504 103.312 37.8199 103.363 37.7799 103.406C37.7399 103.448 37.6914 103.482 37.6374 103.505L16.7574 111.913C16.7109 111.94 16.659 111.956 16.6054 111.961Z" fill="#B3B3B3"/>
<path d="M11.6374 112.161C11.5726 112.16 11.5089 112.144 11.4517 112.113C11.3946 112.083 11.3457 112.039 11.3094 111.985L10.3654 110.609C10.305 110.521 10.2819 110.412 10.3014 110.307C10.321 110.202 10.3814 110.109 10.4694 110.049C10.5575 109.988 10.6659 109.965 10.771 109.985C10.876 110.004 10.969 110.065 11.0294 110.153L11.9734 111.537C12.0301 111.625 12.0509 111.731 12.0315 111.834C12.0122 111.936 11.9542 112.028 11.8694 112.089C11.801 112.135 11.7202 112.16 11.6374 112.161Z" fill="#B3B3B3"/>
<path d="M9.54143 109.097C9.47659 109.096 9.41285 109.08 9.35571 109.049C9.29857 109.019 9.24974 108.975 9.21343 108.921L0.0694275 95.5529C0.0370995 95.5055 0.0153697 95.4516 0.0057068 95.395C-0.00395612 95.3384 -0.00132542 95.2804 0.0134277 95.2249C0.0292667 95.1694 0.0567101 95.1179 0.0939453 95.0737C0.131181 95.0296 0.177363 94.9939 0.229431 94.9689L24.1254 83.7689C24.2097 83.7272 24.3062 83.7172 24.3972 83.7407C24.4883 83.7642 24.5679 83.8197 24.6214 83.8969L37.4774 101.841C37.5382 101.927 37.563 102.034 37.5466 102.139C37.5301 102.243 37.4738 102.337 37.3894 102.401C37.3464 102.432 37.2978 102.454 37.2463 102.465C37.1948 102.477 37.1415 102.479 37.0894 102.47C37.0374 102.461 36.9876 102.442 36.943 102.413C36.8983 102.385 36.8597 102.348 36.8294 102.305L24.1654 84.6089L0.96543 95.4889L9.84543 108.473C9.90332 108.561 9.92403 108.669 9.90306 108.772C9.88208 108.875 9.82111 108.966 9.73343 109.025C9.67734 109.066 9.61087 109.091 9.54143 109.097Z" fill="#B3B3B3"/>
<path d="M36.5334 101.313H36.4534C36.3505 101.29 36.2605 101.228 36.2023 101.14C36.1441 101.052 36.1223 100.945 36.1414 100.841L36.6854 98.3769L25.1734 81.2329L4.53342 91.3369L3.67742 93.8649C3.64116 93.9648 3.56739 94.0466 3.47177 94.0929C3.37616 94.1392 3.26625 94.1464 3.16542 94.1129C3.06615 94.0783 2.98448 94.0061 2.93807 93.9118C2.89166 93.8175 2.88424 93.7087 2.91742 93.6089L3.82942 90.9209C3.86343 90.8205 3.93515 90.7373 4.02942 90.6889L25.1654 80.3609C25.2527 80.3172 25.3529 80.307 25.4472 80.332C25.5415 80.3571 25.6233 80.4157 25.6774 80.4969L37.5014 98.0969C37.5331 98.1401 37.5552 98.1896 37.5663 98.242C37.5773 98.2944 37.577 98.3486 37.5654 98.4009L36.9894 101.033C36.9614 101.128 36.8993 101.209 36.8151 101.26C36.7309 101.312 36.6306 101.331 36.5334 101.313Z" fill="#B3B3B3"/>
<path d="M35.3574 97.233L33.5814 94.737C33.5814 94.737 35.8534 93.745 37.8774 92.617C39.9014 91.489 42.3654 89.897 42.3654 89.897L40.6934 93.281L44.2374 93.417L35.3574 97.233Z" fill="#B3B3B3"/>
<path d="M29.0774 173.593H29.0294C28.9656 173.582 28.9051 173.557 28.8524 173.52C28.7997 173.483 28.7563 173.434 28.7254 173.377L14.0854 145.377C14.0458 145.277 14.0458 145.165 14.0854 145.065C14.1194 144.964 14.1911 144.881 14.2854 144.833L15.9414 144.033C16.0346 143.994 16.1391 143.992 16.2338 144.027C16.3286 144.062 16.4066 144.131 16.4521 144.222C16.4977 144.312 16.5075 144.416 16.4795 144.513C16.4516 144.61 16.3879 144.693 16.3014 144.745L15.0134 145.393L29.1974 172.537L53.3334 146.825C53.3789 146.775 53.437 146.739 53.5014 146.721L82.9174 137.641L68.3654 114.441L67.2934 114.521C67.2406 114.526 67.1873 114.521 67.1366 114.505C67.0859 114.49 67.039 114.464 66.9986 114.429C66.9582 114.395 66.9252 114.353 66.9016 114.305C66.8781 114.258 66.8644 114.206 66.8614 114.153C66.8548 114.048 66.8897 113.945 66.9585 113.865C67.0274 113.786 67.1247 113.737 67.2294 113.729L68.5494 113.625C68.6219 113.617 68.695 113.631 68.7601 113.663C68.8253 113.696 68.8798 113.746 68.9174 113.809L83.8694 137.673C83.8962 137.728 83.9102 137.788 83.9102 137.849C83.9102 137.91 83.8962 137.97 83.8694 138.025C83.8478 138.083 83.8136 138.135 83.7693 138.178C83.725 138.22 83.6718 138.253 83.6134 138.273L53.7974 147.465L29.3734 173.481C29.2933 173.556 29.187 173.596 29.0774 173.593Z" fill="#B3B3B3"/>
<path d="M29.3974 169.777H29.3334C29.2739 169.766 29.2176 169.742 29.169 169.706C29.1205 169.67 29.0809 169.623 29.0534 169.569L15.0534 142.841C15.0093 142.759 14.9955 142.665 15.0145 142.574C15.0336 142.483 15.0842 142.402 15.1574 142.345C15.2214 142.289 21.7974 136.905 24.9014 129.449C27.7654 122.569 32.6934 119.153 38.0854 120.305C38.1414 120.317 38.194 120.341 38.2396 120.376C38.2852 120.41 38.3227 120.454 38.3494 120.505L51.3974 144.049C51.4351 144.117 51.4522 144.194 51.4469 144.271C51.4415 144.348 51.4139 144.422 51.3673 144.484C51.3207 144.546 51.2572 144.593 51.1845 144.619C51.1117 144.646 51.0328 144.65 50.9574 144.633C50.7414 144.585 45.5974 143.521 44.4374 148.473C43.1894 153.769 37.7254 160.585 35.1014 163.857L34.8134 164.225C33.244 166.175 31.5241 167.999 29.6694 169.681C29.5935 169.745 29.4968 169.779 29.3974 169.777ZM15.9014 142.745L29.5014 168.729C31.1774 167.171 32.7388 165.495 34.1734 163.713L34.4614 163.345C37.0534 160.145 42.4614 153.401 43.6374 148.281C44.6854 143.833 48.5814 143.609 50.2934 143.737L37.7334 121.041C32.8214 120.089 28.3094 123.329 25.6294 129.753C22.7974 136.553 17.1574 141.665 15.9014 142.745Z" fill="#B3B3B3"/>
<path d="M51.0375 144.609C50.9663 144.61 50.8962 144.592 50.8343 144.557C50.7724 144.522 50.721 144.471 50.6855 144.409L37.6375 120.857C37.6098 120.768 37.6098 120.673 37.6375 120.585C38.5815 116.185 43.4135 114.185 53.3015 114.185C61.9335 114.185 65.4295 111.441 65.4615 111.417C65.5059 111.381 65.5572 111.355 65.6123 111.34C65.6674 111.324 65.7249 111.321 65.7815 111.329C65.8371 111.339 65.89 111.361 65.9368 111.392C65.9836 111.424 66.0233 111.465 66.0534 111.513L80.6935 135.377C80.7461 135.466 80.763 135.572 80.7407 135.673C80.7185 135.774 80.6587 135.862 80.5735 135.921C80.5335 135.921 79.5015 136.609 73.4695 138.513C69.2855 139.841 64.6695 139.657 60.9495 139.513C59.4733 139.43 57.9936 139.43 56.5175 139.513C53.0135 139.801 51.4694 144.313 51.4535 144.313C51.4288 144.387 51.3832 144.452 51.3221 144.5C51.2609 144.549 51.1871 144.578 51.1095 144.585L51.0375 144.609ZM38.4135 120.609L50.9815 143.297C51.6375 141.857 53.3335 138.985 56.4135 138.729C57.9216 138.646 59.4333 138.646 60.9415 138.729C64.5895 138.873 69.1335 139.049 73.1895 137.769C75.4146 137.117 77.6019 136.342 79.7415 135.449L65.5575 112.313C64.4375 113.041 60.7175 115.001 53.2615 115.001C43.9335 115.009 39.3415 116.769 38.4135 120.609Z" fill="#B3B3B3"/>
<path d="M39.5815 160.225C39.4922 160.227 39.4049 160.198 39.3335 160.145C39.2505 160.077 39.1973 159.98 39.1854 159.874C39.1734 159.768 39.2036 159.661 39.2695 159.577C40.8135 157.641 42.0375 155.929 43.1175 154.417C44.3087 152.575 45.7042 150.873 47.2775 149.345C48.6542 148.162 50.189 147.177 51.8375 146.417C51.8852 146.396 51.9366 146.385 51.9888 146.384C52.0409 146.383 52.0927 146.392 52.1412 146.412C52.1896 146.431 52.2337 146.46 52.2708 146.496C52.308 146.533 52.3374 146.577 52.3575 146.625C52.3981 146.723 52.3991 146.832 52.3603 146.931C52.3215 147.029 52.2459 147.109 52.1495 147.153C50.5777 147.883 49.1135 148.825 47.7975 149.953C46.2819 151.442 44.94 153.098 43.7975 154.889C42.7095 156.409 41.4775 158.089 39.9175 160.081C39.8769 160.13 39.8253 160.168 39.7669 160.193C39.7084 160.219 39.6449 160.229 39.5815 160.225Z" fill="#B3B3B3"/>
<path d="M54.5334 145.273C54.4453 145.274 54.36 145.242 54.2934 145.185C54.2098 145.12 54.1553 145.025 54.1418 144.92C54.1283 144.815 54.1569 144.709 54.2214 144.625C55.7323 142.796 57.878 141.604 60.2294 141.289L61.6614 141.177C67.7988 140.84 73.838 139.488 79.5334 137.177C79.6331 137.139 79.7439 137.142 79.8415 137.185C79.939 137.229 80.0152 137.309 80.0534 137.409C80.0916 137.508 80.0886 137.619 80.0451 137.717C80.0016 137.814 79.9211 137.891 79.8214 137.929C74.0519 140.26 67.9384 141.628 61.7254 141.977L60.3014 142.089C58.1716 142.387 56.2292 143.468 54.8534 145.121C54.8142 145.168 54.7653 145.206 54.7101 145.232C54.6548 145.258 54.5946 145.272 54.5334 145.273Z" fill="#B3B3B3"/>
<path d="M20.1734 146.545C20.0954 146.545 20.0188 146.523 19.9533 146.481C19.8878 146.438 19.8361 146.377 19.8046 146.306C19.7732 146.235 19.7633 146.155 19.7762 146.078C19.7892 146.002 19.8243 145.93 19.8774 145.873C22.597 142.746 25.1345 139.466 27.4774 136.049C31.9974 129.601 35.3174 126.969 38.9414 126.969C39.0475 126.969 39.1492 127.011 39.2243 127.086C39.2993 127.161 39.3414 127.263 39.3414 127.369C39.3414 127.475 39.2993 127.577 39.2243 127.652C39.1492 127.727 39.0475 127.769 38.9414 127.769C35.6134 127.769 32.4774 130.305 28.1334 136.513C25.7665 139.955 23.2078 143.262 20.4694 146.417C20.4317 146.457 20.3858 146.49 20.3349 146.512C20.2839 146.534 20.2289 146.545 20.1734 146.545Z" fill="#B3B3B3"/>
<path d="M22.7174 150.681C22.6169 150.681 22.5198 150.644 22.4454 150.577C22.4082 150.54 22.3786 150.497 22.3584 150.449C22.3382 150.401 22.3278 150.349 22.3278 150.297C22.3278 150.245 22.3382 150.193 22.3584 150.145C22.3786 150.097 22.4082 150.053 22.4454 150.017C25.1624 146.884 27.7024 143.601 30.0534 140.185C34.5654 133.737 37.8854 131.105 41.5174 131.105C41.6229 131.107 41.7234 131.15 41.798 131.224C41.8726 131.299 41.9154 131.399 41.9174 131.505C41.9174 131.611 41.8753 131.713 41.8003 131.788C41.7252 131.863 41.6235 131.905 41.5174 131.905C38.1814 131.905 35.0534 134.441 30.7014 140.649C28.3345 144.091 25.7758 147.398 23.0374 150.553C22.997 150.597 22.9473 150.631 22.8919 150.653C22.8365 150.675 22.7769 150.685 22.7174 150.681Z" fill="#B3B3B3"/>
<path d="M25.2614 154.817C25.1849 154.816 25.1102 154.793 25.0463 154.751C24.9823 154.709 24.9317 154.65 24.9006 154.58C24.8694 154.51 24.8589 154.432 24.8704 154.357C24.8819 154.281 24.9149 154.21 24.9654 154.153C27.6814 151.021 30.2213 147.742 32.5734 144.329C37.0854 137.873 40.4054 135.241 44.0374 135.241C44.1429 135.243 44.2434 135.286 44.318 135.36C44.3926 135.435 44.4354 135.535 44.4374 135.641C44.4374 135.747 44.3953 135.849 44.3203 135.924C44.2452 135.999 44.1435 136.041 44.0374 136.041C40.7014 136.041 37.5734 138.577 33.2294 144.785C30.8585 148.226 28.2972 151.533 25.5574 154.689C25.52 154.73 25.4742 154.763 25.4232 154.785C25.3722 154.807 25.317 154.818 25.2614 154.817Z" fill="#B3B3B3"/>
<path d="M27.8054 158.953C27.7567 158.954 27.7083 158.945 27.663 158.927C27.6177 158.909 27.5764 158.883 27.5414 158.849C27.5042 158.812 27.4746 158.769 27.4544 158.721C27.4342 158.673 27.4238 158.621 27.4238 158.569C27.4238 158.517 27.4342 158.465 27.4544 158.417C27.4746 158.369 27.5042 158.325 27.5414 158.289C30.2605 155.16 32.8005 151.88 35.1494 148.465C39.6614 142.009 42.9814 139.385 46.6134 139.385C46.7195 139.385 46.8213 139.427 46.8963 139.502C46.9713 139.577 47.0134 139.679 47.0134 139.785C47.0134 139.891 46.9713 139.993 46.8963 140.068C46.8213 140.143 46.7195 140.185 46.6134 140.185C43.2774 140.185 40.1494 142.713 35.8054 148.921C33.4402 152.367 30.8787 155.673 28.1334 158.825C28.0925 158.87 28.0416 158.905 27.9846 158.928C27.9276 158.95 27.8663 158.958 27.8054 158.953Z" fill="#B3B3B3"/>
<path d="M43.3974 125.865H43.2614C43.163 125.827 43.0831 125.753 43.0383 125.657C42.9936 125.562 42.9875 125.453 43.0214 125.353C43.0214 125.313 44.4534 121.585 49.4214 121.585C58.7414 121.585 64.7894 120.145 65.5894 117.721C65.6234 117.615 65.6981 117.527 65.7971 117.476C65.8461 117.45 65.8996 117.435 65.9546 117.43C66.0096 117.426 66.0649 117.432 66.1174 117.449C66.1699 117.466 66.2186 117.493 66.2607 117.528C66.3028 117.564 66.3375 117.608 66.3628 117.657C66.388 117.706 66.4034 117.759 66.4079 117.814C66.4125 117.869 66.4062 117.924 66.3894 117.977C65.1174 121.817 55.2374 122.385 49.4614 122.385C45.0454 122.385 43.8614 125.489 43.7894 125.625C43.7567 125.7 43.7015 125.764 43.6313 125.807C43.5612 125.85 43.4795 125.87 43.3974 125.865Z" fill="#B3B3B3"/>
<path d="M46.2615 130.633C46.1723 130.633 46.0854 130.605 46.0135 130.553C45.931 130.487 45.878 130.391 45.8661 130.286C45.8541 130.181 45.884 130.076 45.9495 129.993C46.0455 129.865 48.3494 126.969 54.5334 126.969C61.1814 126.969 66.1175 125.409 69.2135 122.313C69.2882 122.24 69.3887 122.198 69.4934 122.198C69.5981 122.198 69.6987 122.24 69.7735 122.313C69.8109 122.35 69.8407 122.394 69.861 122.443C69.8813 122.492 69.8918 122.544 69.8918 122.597C69.8918 122.65 69.8813 122.702 69.861 122.751C69.8407 122.799 69.8109 122.844 69.7735 122.881C66.5334 126.129 61.4054 127.809 54.5334 127.809C48.7894 127.809 46.5974 130.497 46.5814 130.521C46.5396 130.562 46.4892 130.593 46.4339 130.612C46.3786 130.632 46.3197 130.639 46.2615 130.633Z" fill="#B3B3B3"/>
<path d="M48.1735 135.409C48.1153 135.407 48.0582 135.393 48.0055 135.369C47.9577 135.347 47.9147 135.317 47.8791 135.278C47.8435 135.24 47.8159 135.195 47.798 135.145C47.7801 135.096 47.7723 135.044 47.7749 134.992C47.7776 134.939 47.7907 134.888 47.8135 134.841C48.5535 133.464 49.6666 132.325 51.025 131.552C52.3835 130.779 53.9322 130.405 55.4935 130.473C62.1815 130.473 68.0375 129.073 71.1655 126.737C71.2071 126.704 71.2548 126.68 71.3059 126.667C71.3569 126.653 71.4102 126.65 71.4625 126.658C71.5148 126.665 71.5651 126.683 71.6103 126.71C71.6555 126.738 71.6946 126.774 71.7255 126.817C71.7871 126.902 71.8132 127.009 71.7983 127.113C71.7834 127.217 71.7286 127.312 71.6455 127.377C66.9495 130.889 58.7815 131.273 55.4935 131.273C54.0842 131.207 52.6847 131.538 51.4543 132.228C50.2239 132.918 49.2119 133.94 48.5335 135.177C48.5024 135.246 48.4519 135.305 48.3879 135.346C48.324 135.388 48.2495 135.409 48.1735 135.409Z" fill="#B3B3B3"/>
<path d="M50.3974 138.905C50.3605 138.912 50.3224 138.912 50.2854 138.905C50.1848 138.873 50.1002 138.804 50.0495 138.712C49.9988 138.619 49.9859 138.511 50.0134 138.409C50.0614 138.265 51.1174 134.953 56.7414 134.625C62.5943 134.315 68.3552 133.037 73.7894 130.841C73.8381 130.813 73.8922 130.795 73.9481 130.789C74.004 130.784 74.0605 130.79 74.1139 130.807C74.1673 130.825 74.2165 130.853 74.2581 130.891C74.2997 130.929 74.333 130.975 74.3556 131.026C74.3782 131.078 74.3897 131.134 74.3894 131.19C74.3891 131.246 74.3769 131.301 74.3537 131.353C74.3304 131.404 74.2967 131.45 74.2546 131.487C74.2125 131.524 74.1631 131.552 74.1094 131.569C68.5916 133.811 62.7374 135.115 56.7894 135.425C51.7574 135.721 50.8214 138.521 50.7814 138.625C50.7558 138.707 50.7046 138.778 50.6355 138.828C50.5664 138.879 50.483 138.905 50.3974 138.905Z" fill="#B3B3B3"/>
<path d="M205.333 45.4729C205.274 45.4659 205.216 45.4459 205.165 45.414C205.114 45.3822 205.07 45.3395 205.037 45.2888L193.773 27.0729L172.237 15.3369C172.18 15.3077 172.131 15.2645 172.095 15.2114C172.058 15.1583 172.036 15.0969 172.029 15.0328C172.022 14.9695 172.029 14.9051 172.052 14.8453C172.074 14.7855 172.11 14.7318 172.157 14.6888L188.253 0.104851C188.293 0.0684625 188.34 0.0404908 188.391 0.0226188C188.442 0.0047467 188.496 -0.00266068 188.549 0.000847511C188.601 0.00425559 188.652 0.0180446 188.699 0.0413993C188.746 0.0647539 188.787 0.097208 188.821 0.136852L189.661 1.09685C189.716 1.17788 189.739 1.27601 189.726 1.37275C189.713 1.4695 189.665 1.55818 189.591 1.62211C189.518 1.68603 189.423 1.72078 189.325 1.71981C189.228 1.71884 189.134 1.68222 189.061 1.61685L188.493 0.968847L173.109 14.9049L194.221 26.4169C194.281 26.4542 194.333 26.5032 194.373 26.5609L205.421 44.4248L218.181 30.8888L217.965 30.2649C217.948 30.2149 217.941 30.1621 217.944 30.1094C217.947 30.0566 217.96 30.005 217.983 29.9575C218.006 29.9099 218.039 29.8674 218.078 29.8323C218.117 29.7972 218.163 29.7702 218.213 29.7529C218.263 29.7355 218.316 29.7282 218.369 29.7313C218.422 29.7343 218.473 29.7478 218.521 29.7708C218.568 29.7938 218.611 29.826 218.646 29.8655C218.681 29.9049 218.708 29.9509 218.725 30.0008L219.021 30.8568C219.046 30.9264 219.05 31.0012 219.035 31.0732C219.019 31.1452 218.984 31.2115 218.933 31.2649L205.645 45.3529C205.605 45.3937 205.556 45.4256 205.502 45.4463C205.448 45.467 205.391 45.476 205.333 45.4729Z" fill="#B3B3B3"/>
<path d="M195.493 24.9849C195.446 24.9923 195.397 24.9923 195.349 24.9849C195.277 24.9558 195.214 24.9063 195.168 24.8425C195.123 24.7787 195.097 24.7031 195.093 24.6248C195.093 24.4808 194.909 20.9689 191.541 21.0729C187.749 21.1529 182.269 18.6728 179.629 17.5128L179.341 17.3849C177.765 16.6766 176.246 15.8474 174.797 14.9049C174.747 14.8709 174.705 14.8259 174.674 14.7732C174.644 14.7205 174.626 14.6616 174.621 14.6008C174.617 14.5394 174.627 14.4778 174.651 14.4209C174.675 14.364 174.711 14.3134 174.757 14.2729L190.133 0.296851C190.206 0.23841 190.296 0.206543 190.389 0.206543C190.483 0.206543 190.573 0.23841 190.645 0.296851C193.704 2.42471 197.186 3.86568 200.853 4.52085C205.989 5.24885 209.157 7.98485 209.325 11.8328C209.328 11.8891 209.319 11.9453 209.298 11.9977C209.277 12.05 209.246 12.0975 209.205 12.1369L195.797 24.9369C195.706 24.9911 195.597 25.0083 195.493 24.9849ZM191.661 20.2409C192.659 20.2219 193.629 20.5698 194.387 21.2187C195.145 21.8676 195.638 22.7722 195.773 23.7609L208.533 11.6568C208.293 8.27285 205.469 5.96085 200.757 5.25685C197.06 4.6251 193.544 3.1975 190.453 1.07285L175.677 14.4888C176.959 15.2933 178.296 16.0071 179.677 16.6248L179.965 16.7529C182.557 17.9129 187.965 20.3369 191.533 20.2409H191.661Z" fill="#B3B3B3"/>
<path d="M206.285 43.0089C206.186 43.009 206.09 42.9751 206.013 42.9129C205.949 42.8489 205.317 42.2409 203.037 38.6089C201.437 36.0329 200.733 32.9129 200.189 30.4089C199.993 29.4178 199.745 28.4377 199.445 27.4729C198.645 25.2649 195.501 25.0249 195.445 25.0169C195.368 25.0127 195.294 24.9864 195.232 24.9409C195.169 24.8955 195.121 24.833 195.093 24.7609C195.068 24.6864 195.064 24.6063 195.083 24.5298C195.101 24.4534 195.141 24.3837 195.197 24.3289L208.605 11.5689C208.675 11.5036 208.766 11.4666 208.861 11.4649C212.005 11.3129 214.205 14.2249 215.933 20.8809C217.421 26.6009 219.813 28.4009 219.837 28.4169C219.884 28.4507 219.923 28.4937 219.952 28.5433C219.98 28.5929 219.999 28.6479 220.005 28.7049C220.01 28.7618 220.002 28.819 219.983 28.8728C219.963 28.9265 219.933 28.9756 219.893 29.0169L206.573 42.8489C206.539 42.8941 206.496 42.9317 206.446 42.9592C206.397 42.9868 206.342 43.0037 206.285 43.0089ZM196.365 24.3449C197.517 24.5929 199.525 25.2809 200.197 27.2089C200.524 28.2 200.791 29.2098 200.997 30.2329C201.533 32.6809 202.205 35.7209 203.749 38.1849C204.546 39.505 205.408 40.7839 206.333 42.0169L219.077 28.7609C218.317 28.0329 216.461 25.8489 215.213 21.0809C213.653 15.0729 211.709 12.2809 209.109 12.2809L196.365 24.3449Z" fill="#B3B3B3"/>
<path d="M193.965 26.0568C193.905 26.056 193.846 26.0419 193.792 26.0157C193.739 25.9894 193.691 25.9515 193.653 25.9048C192.904 24.9889 192.032 24.1812 191.061 23.5048C189.815 22.7565 188.489 22.1475 187.109 21.6888C185.909 21.2328 184.549 20.7128 182.973 20.0088C182.877 19.9652 182.802 19.8851 182.764 19.7861C182.727 19.6872 182.73 19.5774 182.773 19.4808C182.794 19.4324 182.824 19.3886 182.863 19.3521C182.901 19.3157 182.946 19.2873 182.995 19.2686C183.044 19.2499 183.097 19.2414 183.149 19.2435C183.202 19.2456 183.254 19.2583 183.301 19.2808C184.853 19.9688 186.205 20.4888 187.389 20.9448C188.833 21.4205 190.218 22.0593 191.517 22.8488C192.55 23.5691 193.481 24.4247 194.285 25.3928C194.35 25.478 194.379 25.5853 194.366 25.6916C194.352 25.7979 194.298 25.8946 194.213 25.9608C194.144 26.0202 194.057 26.054 193.965 26.0568Z" fill="#B3B3B3"/>
<path d="M204.901 42.8808C204.837 42.8805 204.774 42.8652 204.717 42.836C204.66 42.8068 204.611 42.7646 204.573 42.7128C202.017 39.2693 200.044 35.4287 198.733 31.3448C198.621 31.0088 198.509 30.6968 198.413 30.4168C197.852 29.0859 196.821 28.0071 195.517 27.3848C195.464 27.368 195.414 27.34 195.372 27.3027C195.33 27.2654 195.296 27.2197 195.273 27.1685C195.25 27.1173 195.238 27.0618 195.237 27.0056C195.237 26.9494 195.249 26.8938 195.271 26.8423C195.294 26.7909 195.327 26.7447 195.369 26.707C195.41 26.6692 195.46 26.6407 195.513 26.6232C195.566 26.6057 195.623 26.5996 195.679 26.6054C195.735 26.6112 195.789 26.6287 195.837 26.6568C197.349 27.355 198.539 28.6019 199.165 30.1448C199.269 30.4328 199.373 30.7448 199.485 31.0808C200.773 35.1039 202.714 38.8877 205.229 42.2808C205.26 42.3232 205.282 42.3712 205.293 42.4221C205.305 42.4729 205.306 42.5256 205.298 42.577C205.289 42.6284 205.269 42.6775 205.241 42.7215C205.213 42.7654 205.176 42.8033 205.133 42.8328C205.064 42.8745 204.982 42.8915 204.901 42.8808Z" fill="#B3B3B3"/>
<path d="M204.621 14.0167C204.533 14.0158 204.447 13.9854 204.377 13.9304C204.308 13.8753 204.259 13.7988 204.237 13.7127C203.669 11.5447 201.469 9.92073 196.629 8.11273C193.922 7.1333 191.272 6.0008 188.693 4.72073C188.643 4.69827 188.599 4.66577 188.562 4.62523C188.525 4.5847 188.496 4.537 188.479 4.48511C188.461 4.43321 188.454 4.37823 188.459 4.32357C188.463 4.26891 188.479 4.21574 188.504 4.16736C188.53 4.11899 188.566 4.07645 188.609 4.04238C188.652 4.00831 188.701 3.98344 188.754 3.96931C188.807 3.95518 188.863 3.9521 188.917 3.96026C188.971 3.96842 189.023 3.98764 189.069 4.01673C191.617 5.27663 194.231 6.39565 196.901 7.36873C202.021 9.26473 204.373 11.0487 205.013 13.5047C205.027 13.5557 205.03 13.6087 205.022 13.6609C205.015 13.713 204.998 13.7632 204.971 13.8085C204.944 13.8539 204.909 13.8935 204.866 13.9251C204.824 13.9567 204.776 13.9797 204.725 13.9927L204.621 14.0167Z" fill="#B3B3B3"/>
<path d="M202.309 16.4249C202.222 16.4244 202.137 16.3952 202.067 16.3417C201.998 16.2883 201.948 16.2135 201.925 16.1289C201.357 13.9529 199.157 12.3369 194.317 10.5289C191.611 9.54512 188.961 8.40999 186.381 7.12893C186.331 7.10647 186.287 7.07397 186.25 7.03344C186.213 6.9929 186.184 6.94521 186.167 6.89331C186.149 6.84142 186.142 6.78643 186.147 6.73177C186.151 6.67711 186.167 6.62394 186.192 6.57557C186.218 6.5272 186.254 6.48465 186.297 6.45058C186.34 6.41651 186.389 6.39164 186.442 6.37751C186.495 6.36338 186.551 6.36031 186.605 6.36847C186.659 6.37662 186.711 6.39584 186.757 6.42493C189.305 7.68981 191.923 8.80895 194.597 9.77693C199.709 11.6809 202.061 13.4569 202.701 15.9129C202.716 15.9639 202.72 16.0173 202.713 16.0698C202.706 16.1223 202.689 16.1729 202.662 16.2185C202.635 16.2641 202.599 16.3038 202.556 16.3351C202.514 16.3665 202.465 16.3889 202.413 16.4009C202.381 16.4166 202.345 16.4248 202.309 16.4249Z" fill="#B3B3B3"/>
<path d="M199.997 18.833C199.91 18.8325 199.825 18.8032 199.756 18.7498C199.686 18.6963 199.636 18.6215 199.613 18.537C199.045 16.361 196.845 14.745 192.005 12.937C189.298 11.9575 186.648 10.825 184.069 9.54496C184.023 9.52028 183.981 9.48662 183.948 9.44592C183.914 9.40522 183.888 9.35827 183.873 9.30776C183.857 9.25724 183.852 9.20415 183.857 9.15151C183.862 9.09887 183.877 9.04772 183.901 9.00096C183.926 8.95421 183.96 8.91278 184 8.87904C184.041 8.8453 184.088 8.8199 184.139 8.8043C184.189 8.7887 184.242 8.7832 184.295 8.78812C184.348 8.79304 184.399 8.80828 184.445 8.83297C186.993 10.0978 189.611 11.217 192.285 12.185C197.397 14.089 199.749 15.865 200.389 18.329C200.403 18.3799 200.406 18.433 200.398 18.4851C200.391 18.5372 200.374 18.5874 200.347 18.6328C200.32 18.6781 200.285 18.7177 200.242 18.7493C200.2 18.7809 200.152 18.8039 200.101 18.817L199.997 18.833Z" fill="#B3B3B3"/>
<path d="M197.685 21.2489C197.597 21.2479 197.511 21.2176 197.441 21.1625C197.372 21.1075 197.323 21.031 197.301 20.9449C196.733 18.7769 194.533 17.1529 189.693 15.3449C186.986 14.3655 184.336 13.233 181.757 11.9529C181.664 11.902 181.594 11.8167 181.563 11.715C181.531 11.6134 181.541 11.5036 181.589 11.4089C181.642 11.317 181.727 11.2485 181.828 11.2173C181.929 11.186 182.038 11.1945 182.133 11.2409C184.679 12.5099 187.297 13.6292 189.973 14.5929C195.085 16.4969 197.437 18.2809 198.077 20.7369C198.091 20.7879 198.094 20.8409 198.086 20.893C198.079 20.9452 198.061 20.9954 198.035 21.0407C198.008 21.086 197.973 21.1256 197.93 21.1572C197.888 21.1889 197.84 21.2118 197.789 21.2249L197.685 21.2489Z" fill="#B3B3B3"/>
<path d="M215.661 30.3608C212.949 30.1768 210.909 24.4968 209.677 19.7688C208.933 16.9208 206.741 16.6568 206.645 16.6488C206.541 16.6367 206.445 16.5837 206.379 16.5013C206.313 16.4189 206.282 16.3137 206.293 16.2088C206.306 16.1048 206.357 16.0095 206.437 15.9425C206.518 15.8755 206.621 15.8419 206.725 15.8488C206.845 15.8488 209.565 16.1528 210.453 19.5608C212.053 25.7128 214.021 29.4488 215.709 29.5608C215.762 29.5638 215.813 29.5772 215.861 29.6002C215.908 29.6232 215.951 29.6553 215.985 29.6947C216.02 29.7341 216.047 29.78 216.064 29.8298C216.081 29.8796 216.089 29.9322 216.085 29.9848C216.077 30.0902 216.028 30.1883 215.949 30.2584C215.87 30.3285 215.767 30.3652 215.661 30.3608Z" fill="#B3B3B3"/>
<path d="M213.093 33.5128C213.02 33.5144 212.948 33.495 212.885 33.4568C210.133 31.8568 208.133 28.6568 206.933 24.0888C205.957 20.3368 203.845 19.3528 203.821 19.3448C203.736 19.2956 203.672 19.2166 203.641 19.1229C203.611 19.0293 203.615 18.9276 203.655 18.8374C203.695 18.7472 203.766 18.6748 203.856 18.6341C203.946 18.5934 204.047 18.5873 204.141 18.6168C204.245 18.6168 206.629 19.7208 207.709 23.8888C208.853 28.2808 210.733 31.2648 213.309 32.7688C213.4 32.8223 213.466 32.9094 213.493 33.0112C213.52 33.1131 213.506 33.2215 213.453 33.3128C213.417 33.3751 213.364 33.4264 213.3 33.4616C213.237 33.4967 213.166 33.5144 213.093 33.5128Z" fill="#B3B3B3"/>
<path d="M210.453 35.5529C210.363 35.5559 210.274 35.5245 210.205 35.4649C207.005 32.9289 205.349 27.5369 204.773 25.3289C204.575 24.4058 204.123 23.5562 203.469 22.8752C202.815 22.1941 201.984 21.7086 201.069 21.4729C200.966 21.4535 200.874 21.3938 200.814 21.3069C200.754 21.2199 200.731 21.1128 200.749 21.0089C200.769 20.9047 200.828 20.8121 200.915 20.7509C201.002 20.6896 201.109 20.6645 201.213 20.6809C202.279 20.9436 203.25 21.4995 204.017 22.2856C204.783 23.0717 205.314 24.0567 205.549 25.1289C206.701 29.5529 208.629 33.1849 210.701 34.8409C210.743 34.8737 210.778 34.9145 210.804 34.9609C210.83 35.0074 210.847 35.0586 210.853 35.1115C210.859 35.1644 210.854 35.2179 210.839 35.269C210.824 35.3201 210.799 35.3676 210.765 35.4089C210.728 35.4555 210.681 35.4928 210.626 35.5178C210.572 35.5428 210.513 35.5548 210.453 35.5529Z" fill="#B3B3B3"/>
<path d="M208.141 37.9688C208.082 37.9674 208.023 37.9531 207.969 37.9269C207.915 37.9007 207.867 37.8631 207.829 37.8168C205.371 34.521 203.478 30.8386 202.229 26.9208C201.189 23.7208 199.245 23.5688 199.165 23.5688C199.059 23.5626 198.958 23.5147 198.887 23.4354C198.815 23.3561 198.777 23.2517 198.781 23.1448C198.78 23.0915 198.79 23.0385 198.811 22.9894C198.832 22.9403 198.863 22.8964 198.902 22.8606C198.942 22.8249 198.989 22.7981 199.04 22.7823C199.091 22.7664 199.145 22.7618 199.197 22.7688C199.301 22.7688 201.773 22.9048 202.989 26.6728C204.217 30.4953 206.06 34.0919 208.445 37.3208C208.51 37.4047 208.539 37.5107 208.525 37.6157C208.512 37.7206 208.457 37.816 208.373 37.8808C208.307 37.9335 208.226 37.9643 208.141 37.9688Z" fill="#B3B3B3"/>
<path d="M62.5014 55.0968H62.4054L59.5094 54.3768C59.4484 54.3612 59.3919 54.3315 59.3446 54.2899C59.2972 54.2484 59.2604 54.1963 59.237 54.1378C59.2136 54.0793 59.2043 54.0162 59.21 53.9534C59.2156 53.8907 59.236 53.8302 59.2694 53.7768L72.6374 32.8168C72.6947 32.7266 72.7855 32.6629 72.8898 32.6397C72.994 32.6164 73.1033 32.6355 73.1934 32.6928C73.2836 32.7501 73.3473 32.8409 73.3706 32.9451C73.3938 33.0494 73.3747 33.1586 73.3174 33.2488L60.2454 53.7368L62.3254 54.2568L75.5334 34.6168C75.5906 34.5323 75.6774 34.4723 75.7766 34.4487C75.8758 34.425 75.9803 34.4393 76.0694 34.4888L97.1174 46.6248L99.4054 44.3368L76.4054 32.3368C76.311 32.288 76.2399 32.2037 76.2076 32.1024C76.1753 32.0012 76.1846 31.8912 76.2334 31.7968C76.2822 31.7024 76.3665 31.6312 76.4678 31.599C76.5691 31.5667 76.679 31.576 76.7734 31.6248L100.261 43.9128C100.318 43.9413 100.366 43.9832 100.402 44.0348C100.439 44.0864 100.462 44.1462 100.469 44.2088C100.479 44.2697 100.474 44.332 100.454 44.3905C100.435 44.449 100.402 44.5019 100.357 44.5448L97.4694 47.4408C97.4074 47.5025 97.3269 47.5421 97.2402 47.5537C97.1535 47.5653 97.0655 47.5481 96.9895 47.5048L75.9894 35.4008L62.8294 54.9688C62.7885 55.0143 62.7376 55.0495 62.6806 55.0717C62.6237 55.0939 62.5623 55.1025 62.5014 55.0968Z" fill="#B3B3B3"/>
<path d="M99.3494 80.0248C99.2824 80.0251 99.2164 80.0086 99.1574 79.9768L81.4534 69.8568C81.4017 69.8275 81.357 69.7872 81.3224 69.7389C81.2879 69.6905 81.2643 69.6352 81.2534 69.5768L75.4694 34.8888C75.4532 34.7828 75.4794 34.6747 75.5423 34.5879C75.6051 34.501 75.6997 34.4424 75.8054 34.4248C75.8574 34.4168 75.9105 34.4192 75.9616 34.4318C76.0127 34.4444 76.0608 34.4669 76.1031 34.4981C76.1455 34.5294 76.1813 34.5686 76.2084 34.6137C76.2356 34.6587 76.2536 34.7087 76.2614 34.7608L82.0134 69.2568L98.9334 78.9048L96.4614 48.9448C96.4567 48.8395 96.492 48.7364 96.5603 48.6563C96.6286 48.5761 96.7248 48.5248 96.8294 48.5128C96.882 48.5084 96.9349 48.5144 96.9851 48.5306C97.0353 48.5468 97.0818 48.5727 97.122 48.6069C97.1621 48.6411 97.1951 48.6829 97.219 48.7299C97.243 48.7769 97.2574 48.8282 97.2614 48.8808L99.7334 79.5928C99.7408 79.6652 99.7274 79.7383 99.6949 79.8035C99.6623 79.8686 99.6118 79.9232 99.5494 79.9608C99.491 80.0024 99.4211 80.0248 99.3494 80.0248Z" fill="#B3B3B3"/>
<path d="M99.3494 80.0248C99.281 80.0243 99.2139 80.0062 99.1545 79.9723C99.095 79.9384 99.0453 79.8899 99.01 79.8313C98.9747 79.7727 98.955 79.7061 98.9528 79.6377C98.9506 79.5693 98.9659 79.5015 98.9974 79.4408L101.837 74.1208L99.6774 44.2488C99.6737 44.1963 99.6804 44.1435 99.6971 44.0936C99.7138 44.0437 99.7402 43.9975 99.7748 43.9578C99.8445 43.8775 99.9433 43.8282 100.049 43.8208C100.156 43.8134 100.26 43.8484 100.34 43.9182C100.421 43.9879 100.47 44.0867 100.477 44.1928L102.645 74.2088C102.646 74.2836 102.63 74.3575 102.597 74.4248L99.7334 79.8088C99.6976 79.8784 99.6421 79.936 99.5738 79.9744C99.5056 80.0128 99.4275 80.0303 99.3494 80.0248Z" fill="#B3B3B3"/>
<path d="M69.7254 86.2088H69.6454C69.5692 86.1946 69.4989 86.1582 69.4433 86.1041C69.3878 86.05 69.3496 85.9806 69.3334 85.9048L63.1894 57.7208C63.168 57.6158 63.1888 57.5067 63.2471 57.4169C63.3055 57.3271 63.3968 57.2638 63.5014 57.2408C63.5529 57.2302 63.606 57.23 63.6576 57.24C63.7091 57.25 63.7583 57.27 63.8021 57.299C63.8459 57.328 63.8836 57.3653 63.913 57.4088C63.9424 57.4524 63.9629 57.5013 63.9734 57.5528L69.9254 84.8648L81.3334 69.2728C81.396 69.1868 81.4902 69.1293 81.5952 69.1128C81.7002 69.0963 81.8075 69.1222 81.8934 69.1848C81.9794 69.2474 82.0369 69.3415 82.0534 69.4465C82.0699 69.5516 82.044 69.6588 81.9814 69.7448L70.0534 86.0088C70.0211 86.068 69.9738 86.1176 69.9163 86.1527C69.8587 86.1878 69.7929 86.2072 69.7254 86.2088Z" fill="#B3B3B3"/>
<path d="M69.7254 86.2087H69.6774L66.4294 85.8487C66.3468 85.839 66.2692 85.8037 66.2075 85.7478C66.1459 85.6918 66.1032 85.6181 66.0854 85.5367L59.2214 54.0967C59.2104 54.0442 59.2098 53.99 59.2197 53.9373C59.2296 53.8845 59.2499 53.8342 59.2792 53.7893C59.3085 53.7443 59.3464 53.7056 59.3908 53.6753C59.4351 53.645 59.4849 53.6238 59.5374 53.6127C59.59 53.6017 59.6441 53.6011 59.6969 53.611C59.7496 53.6209 59.7999 53.6411 59.8449 53.6705C59.8898 53.6998 59.9285 53.7377 59.9588 53.782C59.9891 53.8263 60.0104 53.8762 60.0214 53.9287L66.8294 85.0807L69.7894 85.4087C69.8955 85.4087 69.9973 85.4509 70.0723 85.5259C70.1473 85.6009 70.1894 85.7026 70.1894 85.8087C70.1894 85.9148 70.1473 86.0165 70.0723 86.0916C69.9973 86.1666 69.8955 86.2087 69.7894 86.2087H69.7254Z" fill="#B3B3B3"/>
<path d="M67.1975 60.1529C67.1238 60.1533 67.0515 60.1334 66.9885 60.0953C66.9255 60.0573 66.8742 60.0025 66.8403 59.9372C66.8063 59.8718 66.7911 59.7984 66.7963 59.7249C66.8014 59.6515 66.8267 59.5809 66.8694 59.5209L76.2694 46.5129C76.2989 46.4696 76.3369 46.4328 76.3811 46.4048C76.4253 46.3767 76.4748 46.358 76.5265 46.3498C76.5782 46.3415 76.631 46.3439 76.6817 46.3569C76.7324 46.3698 76.78 46.3929 76.8215 46.4249C76.8647 46.4552 76.9015 46.4938 76.9298 46.5384C76.9581 46.5831 76.9772 46.6329 76.9861 46.6849C76.9951 46.737 76.9936 46.7903 76.9818 46.8418C76.97 46.8933 76.9481 46.9419 76.9174 46.9849L67.5174 59.9929C67.4806 60.0431 67.4324 60.0837 67.3768 60.1116C67.3211 60.1394 67.2597 60.1536 67.1975 60.1529Z" fill="#B3B3B3"/>
<path d="M67.9174 66.2968C67.8346 66.2964 67.7539 66.2713 67.6854 66.2248C67.601 66.161 67.5447 66.067 67.5283 65.9626C67.5118 65.8581 67.5366 65.7513 67.5974 65.6648L76.9894 52.6568C77.0196 52.6132 77.0583 52.5763 77.1032 52.5481C77.1481 52.52 77.1982 52.5013 77.2506 52.493C77.3029 52.4848 77.3564 52.4873 77.4078 52.5003C77.4591 52.5133 77.5073 52.5366 77.5494 52.5688C77.6332 52.6311 77.6894 52.7237 77.7058 52.8268C77.7223 52.93 77.6977 53.0355 77.6374 53.1208L68.2454 66.1288C68.2087 66.1815 68.1596 66.2244 68.1024 66.2537C68.0452 66.283 67.9817 66.2978 67.9174 66.2968Z" fill="#B3B3B3"/>
<path d="M68.6374 72.4408C68.5532 72.4415 68.4713 72.4133 68.4054 72.3608C68.3216 72.2985 68.2655 72.2059 68.249 72.1027C68.2326 71.9996 68.2571 71.8941 68.3174 71.8088L77.7094 58.8008C77.7397 58.7576 77.7783 58.7207 77.823 58.6925C77.8676 58.6642 77.9174 58.645 77.9694 58.6361C78.0215 58.6272 78.0748 58.6287 78.1263 58.6405C78.1778 58.6523 78.2264 58.6741 78.2694 58.7048C78.3538 58.7686 78.4102 58.8626 78.4266 58.9671C78.443 59.0715 78.4182 59.1783 78.3574 59.2648L68.9654 72.2728C68.9287 72.3256 68.8796 72.3685 68.8224 72.3978C68.7652 72.4271 68.7017 72.4418 68.6374 72.4408Z" fill="#B3B3B3"/>
<path d="M69.3334 78.5848C69.2491 78.5861 69.167 78.5578 69.1014 78.5048C69.0582 78.4745 69.0213 78.4359 68.9931 78.3913C68.9648 78.3467 68.9456 78.2969 68.9367 78.2448C68.9278 78.1927 68.9293 78.1394 68.9411 78.0879C68.9529 78.0364 68.9747 77.9878 69.0054 77.9448L78.4054 64.9368C78.4677 64.853 78.5604 64.7968 78.6635 64.7804C78.7666 64.7639 78.8721 64.7885 78.9574 64.8488C79.0007 64.8791 79.0375 64.9177 79.0658 64.9623C79.0941 65.007 79.1132 65.0567 79.1221 65.1088C79.131 65.1609 79.1296 65.2142 79.1178 65.2657C79.106 65.3172 79.0841 65.3658 79.0534 65.4088L69.6534 78.4168C69.617 78.4679 69.5691 78.5098 69.5135 78.539C69.4579 78.5682 69.3962 78.5839 69.3334 78.5848Z" fill="#B3B3B3"/>
<path d="M93.2134 54.7368C93.1427 54.7382 93.0732 54.7187 93.0134 54.6808L80.3654 47.4808C80.2731 47.4278 80.2057 47.3402 80.1779 47.2375C80.1502 47.1347 80.1644 47.0251 80.2174 46.9328C80.2705 46.8405 80.358 46.7731 80.4608 46.7453C80.5636 46.7176 80.6731 46.7318 80.7654 46.7848L93.4134 53.9848C93.5048 54.0398 93.571 54.1283 93.598 54.2315C93.6249 54.3346 93.6103 54.4442 93.5574 54.5368C93.5225 54.5973 93.4724 54.6476 93.4121 54.6826C93.3517 54.7177 93.2833 54.7364 93.2134 54.7368Z" fill="#B3B3B3"/>
<path d="M93.2135 60.5127C93.1439 60.5131 93.0753 60.4966 93.0135 60.4648L80.3654 53.2648C80.3144 53.2417 80.2689 53.2082 80.2316 53.1664C80.1944 53.1246 80.1663 53.0755 80.1492 53.0222C80.1322 52.9689 80.1265 52.9126 80.1325 52.857C80.1386 52.8013 80.1562 52.7476 80.1844 52.6992C80.2125 52.6508 80.2505 52.6089 80.2958 52.5761C80.3412 52.5433 80.3929 52.5204 80.4477 52.5088C80.5025 52.4973 80.5591 52.4974 80.6138 52.5091C80.6685 52.5208 80.7202 52.5438 80.7654 52.5768L93.4135 59.7768C93.5043 59.8302 93.5703 59.9173 93.5973 60.0191C93.6243 60.121 93.6099 60.2294 93.5575 60.3207C93.5216 60.3797 93.471 60.4284 93.4107 60.462C93.3504 60.4957 93.2825 60.5132 93.2135 60.5127Z" fill="#B3B3B3"/>
<path d="M95.0134 66.6569C94.9465 66.6562 94.8807 66.6398 94.8214 66.6089L82.1734 59.4089C82.0812 59.3568 82.0135 59.2702 81.985 59.1683C81.9565 59.0663 81.9696 58.9572 82.0214 58.8649C82.075 58.7721 82.163 58.7042 82.2663 58.6758C82.3695 58.6473 82.4799 58.6607 82.5734 58.7129L95.2134 65.9129C95.2598 65.9379 95.3007 65.972 95.3337 66.0132C95.3666 66.0543 95.3909 66.1017 95.4051 66.1525C95.4193 66.2033 95.4231 66.2564 95.4163 66.3087C95.4095 66.361 95.3921 66.4114 95.3654 66.4569C95.3298 66.5185 95.2784 66.5695 95.2166 66.6047C95.1547 66.6398 95.0846 66.6578 95.0134 66.6569Z" fill="#B3B3B3"/>
<path d="M95.3814 72.8008C95.3107 72.8022 95.2411 72.7827 95.1814 72.7448L82.5334 65.5448C82.4877 65.5185 82.4476 65.4835 82.4155 65.4418C82.3833 65.4 82.3597 65.3523 82.3459 65.3014C82.3322 65.2506 82.3286 65.1975 82.3354 65.1452C82.3421 65.0929 82.3591 65.0425 82.3854 64.9968C82.4117 64.9511 82.4467 64.911 82.4884 64.8788C82.5302 64.8467 82.5779 64.823 82.6288 64.8093C82.6796 64.7955 82.7327 64.792 82.785 64.7987C82.8373 64.8055 82.8877 64.8225 82.9334 64.8488L95.5814 72.0488C95.6565 72.0933 95.7149 72.1612 95.7478 72.2421C95.7807 72.3229 95.7863 72.4123 95.7636 72.4967C95.7409 72.581 95.6913 72.6555 95.6223 72.709C95.5533 72.7625 95.4687 72.7919 95.3814 72.7928V72.8008Z" fill="#B3B3B3"/>
<path d="M252.533 187.009C252.486 187.02 252.437 187.02 252.389 187.009L227.781 177.153C227.722 177.13 227.67 177.094 227.628 177.046C227.586 176.999 227.557 176.942 227.541 176.881C227.527 176.82 227.526 176.757 227.54 176.696C227.554 176.634 227.582 176.577 227.621 176.529L230.205 173.329C230.262 173.262 230.338 173.215 230.423 173.195C230.508 173.175 230.597 173.183 230.677 173.217L252.789 183.145L263.909 162.345C263.95 162.275 264.011 162.218 264.083 162.181C264.155 162.144 264.237 162.129 264.317 162.137L267.269 162.569C267.332 162.577 267.392 162.6 267.443 162.636C267.495 162.672 267.537 162.721 267.565 162.777C267.595 162.834 267.61 162.897 267.61 162.961C267.61 163.025 267.595 163.088 267.565 163.145L256.365 185.337C256.318 185.432 256.234 185.505 256.133 185.539C256.031 185.572 255.921 185.565 255.825 185.517C255.73 185.469 255.657 185.385 255.624 185.284C255.59 185.183 255.598 185.072 255.645 184.977L266.589 163.281L264.469 162.969L253.333 183.809C253.284 183.898 253.204 183.965 253.107 183.997C253.011 184.03 252.906 184.025 252.813 183.985L230.645 174.033L228.597 176.609L252.701 186.209C252.799 186.25 252.877 186.327 252.918 186.424C252.96 186.521 252.963 186.63 252.925 186.729C252.898 186.811 252.846 186.883 252.775 186.933C252.705 186.983 252.62 187.01 252.533 187.009Z" fill="#B3B3B3"/>
<path d="M252.981 184.041C252.893 184.043 252.807 184.015 252.737 183.963C252.666 183.911 252.614 183.837 252.589 183.753L243.397 150.001L225.629 142.105L231.101 171.665C231.12 171.769 231.097 171.876 231.037 171.963C230.977 172.05 230.885 172.11 230.781 172.129C230.677 172.148 230.57 172.125 230.483 172.065C230.397 172.005 230.337 171.913 230.317 171.809L224.717 141.505C224.702 141.434 224.707 141.36 224.732 141.292C224.758 141.223 224.803 141.164 224.861 141.121C224.918 141.076 224.986 141.046 225.058 141.036C225.13 141.027 225.203 141.036 225.269 141.065L243.901 149.353C243.955 149.377 244.003 149.412 244.042 149.456C244.081 149.5 244.109 149.552 244.125 149.609L253.333 183.537C253.359 183.64 253.344 183.748 253.292 183.84C253.24 183.933 253.154 184.001 253.053 184.033L252.981 184.041Z" fill="#B3B3B3"/>
<path d="M227.949 177.137C227.854 177.138 227.762 177.104 227.69 177.042C227.618 176.981 227.571 176.895 227.557 176.801L222.373 147.201C222.357 147.13 222.357 147.056 222.373 146.985L224.709 141.297C224.756 141.209 224.834 141.142 224.927 141.108C225.021 141.074 225.124 141.077 225.215 141.115C225.307 141.152 225.382 141.223 225.424 141.313C225.467 141.403 225.474 141.506 225.445 141.601L223.157 147.201L228.317 176.705C228.327 176.757 228.325 176.81 228.314 176.862C228.302 176.913 228.281 176.962 228.25 177.005C228.22 177.048 228.181 177.085 228.136 177.113C228.091 177.141 228.042 177.16 227.989 177.169L227.949 177.137Z" fill="#B3B3B3"/>
<path d="M262.933 160.161C262.848 160.16 262.765 160.133 262.696 160.083C262.628 160.032 262.576 159.962 262.549 159.881L253.877 133.305L244.101 149.921C244.046 150.01 243.958 150.074 243.857 150.099C243.755 150.124 243.647 150.109 243.557 150.055C243.467 150.002 243.401 149.915 243.374 149.813C243.347 149.712 243.362 149.604 243.413 149.513L253.637 132.137C253.676 132.07 253.734 132.016 253.804 131.981C253.874 131.947 253.952 131.935 254.029 131.945C254.106 131.953 254.178 131.983 254.237 132.032C254.297 132.08 254.341 132.144 254.365 132.217L263.309 159.633C263.327 159.683 263.334 159.736 263.33 159.788C263.327 159.841 263.313 159.892 263.289 159.939C263.265 159.987 263.232 160.028 263.191 160.062C263.151 160.096 263.104 160.122 263.053 160.137L262.933 160.161Z" fill="#B3B3B3"/>
<path d="M267.229 163.353C267.145 163.354 267.062 163.328 266.993 163.279C266.924 163.23 266.872 163.161 266.845 163.081L256.941 132.769H253.957C253.851 132.769 253.75 132.727 253.675 132.652C253.6 132.577 253.557 132.475 253.557 132.369C253.562 132.263 253.606 132.162 253.682 132.088C253.758 132.013 253.859 131.971 253.965 131.969H257.237C257.322 131.97 257.403 131.998 257.471 132.048C257.538 132.098 257.588 132.168 257.613 132.249L267.605 162.833C267.623 162.883 267.63 162.935 267.626 162.988C267.623 163.041 267.609 163.092 267.585 163.139C267.561 163.186 267.528 163.228 267.487 163.262C267.447 163.296 267.4 163.321 267.349 163.337L267.229 163.353Z" fill="#B3B3B3"/>
<path d="M251.061 172.257C250.991 172.258 250.921 172.239 250.861 172.201C250.771 172.147 250.704 172.061 250.676 171.959C250.648 171.858 250.66 171.75 250.709 171.657L258.709 157.769C258.763 157.678 258.849 157.612 258.951 157.583C259.052 157.555 259.161 157.567 259.253 157.617C259.345 157.672 259.411 157.76 259.439 157.862C259.468 157.965 259.456 158.075 259.405 158.169L251.365 172.057C251.334 172.112 251.29 172.159 251.237 172.193C251.185 172.228 251.124 172.25 251.061 172.257Z" fill="#B3B3B3"/>
<path d="M249.725 166.209C249.655 166.211 249.585 166.192 249.525 166.153C249.433 166.101 249.366 166.014 249.337 165.912C249.309 165.81 249.322 165.701 249.373 165.609L257.413 151.729C257.437 151.678 257.47 151.632 257.512 151.595C257.554 151.558 257.603 151.53 257.656 151.513C257.709 151.496 257.766 151.49 257.821 151.496C257.877 151.502 257.931 151.52 257.979 151.548C258.027 151.576 258.069 151.614 258.102 151.659C258.135 151.705 258.158 151.756 258.169 151.811C258.181 151.866 258.181 151.923 258.169 151.977C258.157 152.032 258.134 152.084 258.101 152.129L250.101 166.017C250.063 166.081 250.007 166.133 249.941 166.167C249.874 166.2 249.8 166.215 249.725 166.209Z" fill="#B3B3B3"/>
<path d="M248.381 160.177C248.311 160.177 248.241 160.158 248.181 160.121C248.136 160.095 248.095 160.061 248.063 160.019C248.031 159.978 248.008 159.93 247.994 159.879C247.981 159.829 247.978 159.776 247.985 159.724C247.993 159.672 248.01 159.622 248.037 159.577L256.077 145.689C256.136 145.609 256.222 145.553 256.318 145.533C256.415 145.512 256.516 145.529 256.602 145.578C256.688 145.628 256.752 145.708 256.782 145.802C256.812 145.897 256.806 145.999 256.765 146.089L248.765 159.977C248.727 160.043 248.67 160.097 248.602 160.132C248.534 160.167 248.458 160.183 248.381 160.177Z" fill="#B3B3B3"/>
<path d="M247.045 154.137C246.975 154.137 246.906 154.118 246.845 154.081C246.8 154.055 246.759 154.021 246.727 153.979C246.695 153.938 246.672 153.89 246.658 153.839C246.645 153.789 246.642 153.736 246.649 153.684C246.657 153.632 246.674 153.582 246.701 153.537L254.701 139.649C254.756 139.558 254.845 139.491 254.948 139.464C255.051 139.437 255.161 139.452 255.253 139.505C255.299 139.531 255.339 139.565 255.371 139.607C255.404 139.648 255.427 139.696 255.441 139.746C255.454 139.797 255.457 139.85 255.45 139.902C255.442 139.954 255.424 140.004 255.397 140.049L247.357 153.937C247.325 153.993 247.28 154.04 247.226 154.075C247.172 154.11 247.11 154.131 247.045 154.137Z" fill="#B3B3B3"/>
<path d="M247.069 172.297C247.014 172.296 246.959 172.282 246.909 172.257L233.597 166.345C233.549 166.324 233.505 166.294 233.469 166.256C233.432 166.218 233.404 166.173 233.385 166.123C233.366 166.074 233.358 166.022 233.36 165.969C233.362 165.916 233.375 165.865 233.397 165.817C233.418 165.768 233.449 165.725 233.486 165.688C233.524 165.651 233.569 165.622 233.618 165.603C233.667 165.584 233.72 165.574 233.772 165.575C233.825 165.576 233.877 165.588 233.925 165.609L247.229 171.529C247.335 171.55 247.429 171.613 247.489 171.703C247.549 171.793 247.571 171.903 247.549 172.009C247.528 172.115 247.466 172.208 247.376 172.268C247.286 172.328 247.175 172.35 247.069 172.329V172.297Z" fill="#B3B3B3"/>
<path d="M246.485 166.545C246.432 166.553 246.378 166.553 246.325 166.545L233.013 160.609C232.962 160.59 232.916 160.56 232.877 160.522C232.837 160.484 232.806 160.438 232.785 160.388C232.765 160.337 232.754 160.283 232.755 160.229C232.756 160.174 232.768 160.12 232.79 160.07C232.813 160.021 232.845 159.976 232.885 159.939C232.926 159.902 232.973 159.874 233.025 159.856C233.077 159.839 233.131 159.832 233.186 159.836C233.24 159.84 233.293 159.855 233.341 159.881L246.645 165.793C246.752 165.814 246.845 165.877 246.905 165.967C246.965 166.057 246.987 166.167 246.965 166.273C246.944 166.379 246.882 166.472 246.792 166.532C246.702 166.592 246.592 166.614 246.485 166.593V166.545Z" fill="#B3B3B3"/>
<path d="M244.069 160.609C244.014 160.608 243.959 160.594 243.909 160.569L230.597 154.657C230.549 154.636 230.505 154.606 230.469 154.568C230.432 154.53 230.404 154.485 230.385 154.435C230.366 154.386 230.358 154.334 230.36 154.281C230.362 154.228 230.375 154.177 230.397 154.129C230.418 154.08 230.449 154.037 230.486 154C230.524 153.963 230.569 153.934 230.618 153.915C230.667 153.896 230.72 153.886 230.772 153.887C230.825 153.888 230.877 153.9 230.925 153.921L244.229 159.841C244.278 159.862 244.322 159.892 244.358 159.93C244.395 159.968 244.424 160.013 244.443 160.062C244.463 160.111 244.472 160.163 244.471 160.216C244.47 160.269 244.459 160.321 244.437 160.369C244.405 160.44 244.354 160.5 244.288 160.543C244.223 160.585 244.147 160.608 244.069 160.609Z" fill="#B3B3B3"/>
<path d="M243.093 154.537C243.041 154.549 242.986 154.549 242.933 154.537L229.621 148.609C229.568 148.592 229.518 148.564 229.476 148.527C229.434 148.49 229.4 148.444 229.377 148.393C229.354 148.341 229.342 148.286 229.341 148.23C229.341 148.174 229.353 148.118 229.375 148.066C229.398 148.015 229.431 147.969 229.473 147.931C229.514 147.893 229.564 147.865 229.617 147.847C229.67 147.83 229.727 147.824 229.783 147.83C229.839 147.835 229.893 147.853 229.941 147.881L243.253 153.801C243.302 153.822 243.346 153.852 243.382 153.89C243.419 153.928 243.448 153.973 243.467 154.022C243.487 154.071 243.496 154.123 243.495 154.176C243.494 154.229 243.483 154.281 243.461 154.329C243.424 154.393 243.371 154.447 243.306 154.483C243.241 154.52 243.168 154.538 243.093 154.537Z" fill="#B3B3B3"/>
</svg>
