<svg width="190" height="47" viewBox="0 0 190 47" fill="none" xmlns="http://www.w3.org/2000/svg">
<path d="M8.18 45.32C6.46 44.2 5.44 43.08 5.12 41.96C4.84 40.84 5.24 39.94 6.32 39.26C6.56 39.1 7.02 39.08 7.7 39.2C8.42 39.32 8.96 39.56 9.32 39.92C10.12 40.64 11.02 41.08 12.02 41.24C13.06 41.44 14.32 41.34 15.8 40.94C17.48 40.42 18.76 39.78 19.64 39.02C20.56 38.22 21.58 37.14 22.7 35.78C23.54 34.7 24.12 33.64 24.44 32.6C24.8 31.56 24.96 30.62 24.92 29.78C24.92 28.9 24.72 28.24 24.32 27.8C23.32 26.4 22.08 25.44 20.6 24.92C19.12 24.36 17.18 24.4 14.78 25.04C14.5 25.08 14.08 25.16 13.52 25.28C12.96 25.4 12.46 25.52 12.02 25.64C11.58 25.72 11.34 25.76 11.3 25.76C11.02 25.84 10.8 25.88 10.64 25.88C10.48 25.88 10.28 26.08 10.04 26.48C9.84 26.84 9.52 27.62 9.08 28.82C8.64 29.98 7.98 31.78 7.1 34.22C6.26 36.66 5.54 38.4 4.94 39.44C4.38 40.44 3.88 40.9 3.44 40.82C3 40.7 2.5 40.26 1.94 39.5C1.62 38.94 1.26 38.32 0.86 37.64C0.5 36.96 0.52 36.26 0.92 35.54C1.12 35.18 1.28 34.86 1.4 34.58C1.52 34.26 1.68 33.72 1.88 32.96C2.08 32.36 2.46 31.32 3.02 29.84C3.62 28.32 4.32 26.56 5.12 24.56C5.92 22.52 6.76 20.42 7.64 18.26C8.52 16.1 9.36 14.06 10.16 12.14C11 10.22 11.7 8.6 12.26 7.28C12.82 6.04 13.16 5.14 13.28 4.58C13.4 4.02 13.36 3.72 13.16 3.68C13.16 3.48 13.1 3.3 12.98 3.14C12.86 2.94 12.82 2.76 12.86 2.6C12.86 2.44 13.2 2.22 13.88 1.94C14.6 1.66 15.36 1.4 16.16 1.16C16.96 0.919999 17.54 0.839998 17.9 0.919997C18.1 0.919997 18.34 0.919997 18.62 0.919997C18.9 0.879998 19.04 0.779998 19.04 0.619998C19.16 0.619998 19.54 0.579998 20.18 0.499999C20.82 0.419998 21.52 0.419998 22.28 0.499999C24.96 0.739999 27.16 1.52 28.88 2.84C30.6 4.12 31.44 6.18 31.4 9.02C31.36 9.7 31.08 10.58 30.56 11.66C30.04 12.74 29.38 13.82 28.58 14.9C27.82 15.98 27 16.92 26.12 17.72C25.6 18.16 25.04 18.62 24.44 19.1C23.88 19.54 23.38 19.92 22.94 20.24C22.54 20.52 22.34 20.66 22.34 20.66C22.34 20.66 22.5 20.72 22.82 20.84C23.14 20.96 23.48 21.08 23.84 21.2C25.68 21.88 27.12 22.74 28.16 23.78C29.24 24.82 30 26.26 30.44 28.1C30.6 28.7 30.6 29.44 30.44 30.32C30.32 31.2 30.14 32.08 29.9 32.96C29.66 33.8 29.4 34.52 29.12 35.12C28.84 35.4 28.62 35.7 28.46 36.02C28.3 36.3 28.22 36.44 28.22 36.44C28.22 36.52 28.06 36.84 27.74 37.4C27.42 37.92 27.04 38.5 26.6 39.14C26.16 39.78 25.74 40.34 25.34 40.82C24.94 41.14 24.36 41.58 23.6 42.14C22.88 42.74 22.08 43.32 21.2 43.88C20.36 44.44 19.56 44.86 18.8 45.14C17.68 45.62 16.42 45.94 15.02 46.1C13.66 46.3 12.36 46.32 11.12 46.16C9.88 46.04 8.9 45.76 8.18 45.32ZM12.5 20.42C12.5 20.42 12.82 20.36 13.46 20.24C14.14 20.08 14.88 19.92 15.68 19.76C16.48 19.56 17.08 19.38 17.48 19.22C17.68 19.1 17.96 18.94 18.32 18.74C18.72 18.54 19.12 18.24 19.52 17.84C20.08 17.32 20.68 16.74 21.32 16.1C21.96 15.42 22.58 14.7 23.18 13.94C23.82 13.18 24.36 12.36 24.8 11.48C25.72 10.04 26.22 9 26.3 8.36C26.38 7.72 26.16 7.14 25.64 6.62C25.28 6.18 24.78 5.86 24.14 5.66C23.5 5.42 22.8 5.3 22.04 5.3C21.32 5.26 20.62 5.34 19.94 5.54C19.42 5.7 19.02 5.9 18.74 6.14C18.46 6.34 18.32 6.66 18.32 7.1C18.32 7.46 18.2 7.84 17.96 8.24C17.76 8.6 17.56 8.88 17.36 9.08C17.32 9.36 17.18 9.64 16.94 9.92C16.74 10.16 16.64 10.28 16.64 10.28C16.64 10.44 16.38 10.94 15.86 11.78C15.38 12.58 14.86 13.74 14.3 15.26C13.58 16.98 13.1 18.22 12.86 18.98C12.62 19.74 12.5 20.22 12.5 20.42ZM37.4863 40.58C36.9663 40.58 36.5463 40.48 36.2262 40.28C35.9463 40.08 35.5863 39.8 35.1463 39.44C34.3863 38.64 33.7663 37.78 33.2863 36.86C32.8463 35.94 32.6863 35.14 32.8063 34.46C32.9263 34.14 32.9663 33.84 32.9263 33.56C32.9263 33.24 32.9263 33.08 32.9263 33.08C32.7263 32.88 32.6663 32.76 32.7463 32.72C32.8263 32.64 32.9063 32.52 32.9863 32.36C33.2263 32.36 33.3063 32.14 33.2263 31.7C33.1463 31.38 33.2663 30.7 33.5863 29.66C33.9463 28.58 34.4263 27.56 35.0263 26.6C35.2663 26.2 35.6263 25.68 36.1063 25.04C36.5863 24.36 37.1063 23.7 37.6663 23.06C38.2663 22.38 38.8063 21.84 39.2863 21.44C40.2863 20.6 41.2063 19.92 42.0463 19.4C42.9263 18.88 43.8063 18.52 44.6863 18.32C45.5663 18.12 46.4663 18.02 47.3863 18.02C48.3463 18.02 49.1263 18.34 49.7263 18.98C50.6463 19.38 51.2863 19.92 51.6463 20.6C52.0463 21.28 52.3063 22.16 52.4263 23.24C52.5463 24.44 52.4263 25.92 52.0663 27.68C51.7063 29.4 50.7263 31.4 49.1263 33.68C48.1263 35.12 47.1463 36.24 46.1863 37.04C45.2263 37.84 44.1663 38.58 43.0063 39.26C42.1663 39.82 41.2663 40.16 40.3063 40.28C39.3463 40.4 38.4063 40.5 37.4863 40.58ZM43.6063 33.26C44.4863 32.5 45.1063 31.66 45.4663 30.74C45.8663 29.82 46.2863 28.74 46.7263 27.5C46.8863 27.26 46.9863 26.86 47.0263 26.3C47.1063 25.74 47.1263 25.2 47.0863 24.68C47.0463 24.12 46.9063 23.8 46.6663 23.72C46.3063 23.44 45.9463 23.38 45.5863 23.54C45.2263 23.66 44.7663 23.92 44.2063 24.32C43.0063 25.32 41.8863 26.48 40.8463 27.8C39.8463 29.08 39.1463 30.66 38.7463 32.54C38.6263 33.54 38.7263 34.3 39.0463 34.82C39.4063 35.3 39.9663 35.44 40.7263 35.24C41.5263 35 42.4863 34.34 43.6063 33.26ZM60.8445 40.52C60.0045 40.68 59.3645 40.64 58.9245 40.4C58.5245 40.12 58.1045 39.78 57.6645 39.38C57.0245 39.06 56.4445 38.62 55.9245 38.06C55.4045 37.46 55.0045 36.84 54.7245 36.2C54.4445 35.56 54.3245 35.06 54.3645 34.7C54.4845 33.3 54.8045 31.78 55.3245 30.14C55.8845 28.5 56.5845 26.9 57.4245 25.34C58.3045 23.78 59.2845 22.4 60.3645 21.2C61.4845 19.96 62.6845 19.06 63.9645 18.5C64.7645 18.18 65.6245 18.06 66.5445 18.14C67.4645 18.22 68.0845 18.6 68.4045 19.28C69.0045 20.44 68.8645 21.18 67.9845 21.5C67.8645 21.5 67.7245 21.56 67.5645 21.68C67.4045 21.76 67.3245 21.88 67.3245 22.04C67.4845 22.12 67.9245 22.14 68.6445 22.1C69.3645 22.02 70.0845 21.9 70.8045 21.74C71.5645 21.54 72.0645 21.34 72.3045 21.14C72.5445 21.02 72.7245 20.96 72.8445 20.96C72.9645 20.96 73.2645 21 73.7445 21.08C74.4245 21.28 74.7645 21.52 74.7645 21.8C74.7645 21.96 74.8245 22.22 74.9445 22.58C75.0645 22.9 75.2045 23.06 75.3645 23.06C75.6445 23.1 75.7045 23.38 75.5445 23.9C75.4245 24.42 74.9645 24.96 74.1645 25.52C73.4045 26 72.9245 26.32 72.7245 26.48C72.5645 26.6 72.5445 26.88 72.6645 27.32C72.9845 28.08 72.9645 29 72.6045 30.08C72.2445 31.16 71.6445 32.28 70.8045 33.44C69.9645 34.6 68.9645 35.7 67.8045 36.74C66.6845 37.74 65.5045 38.6 64.2645 39.32C63.0645 40 61.9245 40.4 60.8445 40.52ZM61.0245 35.48C61.1845 35.48 61.4645 35.4 61.8645 35.24C62.2645 35.04 62.5845 34.88 62.8245 34.76C62.9845 34.6 63.1845 34.42 63.4245 34.22C63.7045 33.98 63.9245 33.84 64.0845 33.8C64.2445 33.8 64.3445 33.74 64.3845 33.62C64.4245 33.46 64.5645 33.16 64.8045 32.72C65.0445 32.24 65.5245 31.54 66.2445 30.62C67.0445 29.74 67.5645 29.04 67.8045 28.52C68.0445 27.96 68.0645 27.36 67.8645 26.72C67.8245 26.56 67.7045 26.46 67.5045 26.42C67.3445 26.38 67.1245 26.28 66.8445 26.12C66.4445 26.12 66.1645 26.22 66.0045 26.42C65.8845 26.58 65.6045 26.48 65.1645 26.12L64.2045 24.92L63.1845 25.94C62.5445 26.58 61.9645 27.38 61.4445 28.34C60.9645 29.3 60.5845 30.28 60.3045 31.28C60.0245 32.28 59.8445 33.16 59.7645 33.92C59.7245 34.52 59.8245 34.92 60.0645 35.12C60.3045 35.32 60.6245 35.44 61.0245 35.48ZM78.5628 41.18C78.2428 41.06 77.8228 40.74 77.3028 40.22C76.7828 39.66 76.3228 39.06 75.9228 38.42C75.5228 37.74 75.3228 37.18 75.3228 36.74C75.5228 36.3 75.7828 35.52 76.1028 34.4C76.4628 33.28 76.8628 32.02 77.3028 30.62C77.6228 30.18 77.8628 29.68 78.0228 29.12C78.2228 28.52 78.4028 27.98 78.5628 27.5C78.8828 26.78 79.2428 25.96 79.6428 25.04C80.0428 24.12 80.4228 23.18 80.7828 22.22C81.1828 21.26 81.5428 20.42 81.8628 19.7C82.4228 18.5 82.8828 17.46 83.2428 16.58C83.6428 15.66 84.0228 14.76 84.3828 13.88C84.7828 13 85.2028 12.02 85.6428 10.94C86.2428 9.7 86.7828 8.48 87.2628 7.28C87.7828 6.04 88.2228 4.94 88.5828 3.98C88.9828 3.02 89.2228 2.34 89.3028 1.94C89.2628 1.62 89.3028 1.4 89.4228 1.28C89.5428 1.12 89.7028 1.02 89.9028 0.979997C90.1028 0.859998 90.4228 0.779999 90.8628 0.74C91.3028 0.699998 91.6028 0.679997 91.7628 0.679997C92.2428 0.759998 92.7228 1.16 93.2028 1.88C93.7228 2.56 93.9828 3.14 93.9828 3.62C93.9828 4.26 93.6628 5.46 93.0228 7.22C92.4228 8.94 91.5428 10.98 90.3828 13.34C88.9828 16.34 87.9228 18.66 87.2028 20.3C86.5228 21.94 86.0628 23.1 85.8228 23.78C85.5828 24.46 85.4828 24.9 85.5228 25.1C85.5228 25.1 85.6828 25.04 86.0028 24.92C86.3228 24.8 86.8028 24.52 87.4428 24.08C87.8828 23.8 88.3828 23.44 88.9428 23C89.5028 22.56 90.0428 22.16 90.5628 21.8C91.1228 21.44 91.5628 21.22 91.8828 21.14C92.0828 20.98 92.3628 20.78 92.7228 20.54C93.0828 20.3 93.4228 20.08 93.7428 19.88C94.5028 19.32 95.1028 19.14 95.5428 19.34C95.9828 19.54 96.3828 19.88 96.7428 20.36C97.1828 20.88 97.3428 21.44 97.2228 22.04C97.1428 22.6 96.5228 23.34 95.3628 24.26C94.4828 24.9 93.5428 25.52 92.5428 26.12C91.5428 26.68 90.6228 27.18 89.7828 27.62C88.9828 28.06 88.4028 28.42 88.0428 28.7C88.0428 28.7 88.2228 28.96 88.5828 29.48C88.9428 30 89.2828 30.5 89.6028 30.98C89.9228 31.62 90.3228 32.44 90.8028 33.44C91.2828 34.4 91.6428 35.08 91.8828 35.48C92.3228 36.12 92.7628 36.54 93.2028 36.74C93.6828 36.94 94.3828 36.88 95.3028 36.56C95.9028 36.4 96.4028 36.42 96.8028 36.62C97.2428 36.78 97.6028 37.06 97.8828 37.46C98.0428 37.78 98.1228 38.1 98.1228 38.42C98.1228 38.74 97.8628 39.12 97.3428 39.56C96.2228 40.32 95.1228 40.96 94.0428 41.48C93.0028 42.04 92.0028 42 91.0428 41.36C90.2028 40.72 89.4028 40 88.6428 39.2C87.9228 38.36 87.1028 37.34 86.1828 36.14C86.1828 35.98 86.0628 35.64 85.8228 35.12C85.5828 34.6 85.4228 34.3 85.3428 34.22C85.1828 33.9 85.0028 33.62 84.8028 33.38C84.6428 33.1 84.5628 32.96 84.5628 32.96C84.4428 32.52 84.2828 32.16 84.0828 31.88C83.9228 31.6 83.7028 31.44 83.4228 31.4C83.2628 31.52 83.0828 31.72 82.8828 32C82.6828 32.28 82.4828 32.62 82.2828 33.02C82.0428 33.62 81.8028 34.22 81.5628 34.82C81.3228 35.38 81.1228 36 80.9628 36.68C80.8028 37.32 80.7028 38.1 80.6628 39.02C80.7028 39.46 80.5228 39.94 80.1228 40.46C79.7228 40.94 79.2028 41.18 78.5628 41.18ZM112.164 44.06C111.524 44.1 110.604 44.06 109.404 43.94C108.244 43.82 107.004 43.52 105.684 43.04C104.404 42.56 103.244 41.86 102.204 40.94C101.204 39.98 100.544 38.7 100.224 37.1C99.7442 34.86 99.6442 32.42 99.9242 29.78C100.204 27.14 100.684 24.54 101.364 21.98C101.564 21.26 101.944 20.34 102.504 19.22C103.064 18.06 103.724 16.82 104.484 15.5C105.284 14.18 106.104 12.9 106.944 11.66C107.784 10.38 108.564 9.28 109.284 8.36C109.804 7.76 110.464 7.08 111.264 6.32C112.104 5.52 112.964 4.76 113.844 4.04C114.764 3.28 115.584 2.64 116.304 2.12C117.064 1.56 117.604 1.22 117.924 1.1C118.444 0.859999 118.964 0.719999 119.484 0.679997C120.004 0.599998 120.624 0.659998 121.344 0.859998C121.904 0.899998 122.504 1.1 123.144 1.46C123.784 1.78 124.344 2.14 124.824 2.54C125.304 2.94 125.564 3.32 125.604 3.68C125.644 3.92 126.084 3.9 126.924 3.62C127.204 3.3 127.624 3.06 128.184 2.9C128.744 2.7 129.264 2.6 129.744 2.6C130.224 2.56 130.484 2.68 130.524 2.96C130.284 3.32 130.324 3.64 130.644 3.92C130.764 3.88 130.784 4.16 130.704 4.76C130.624 5.36 130.484 6.06 130.284 6.86C130.084 7.62 129.844 8.22 129.564 8.66C129.564 8.66 129.524 8.76 129.444 8.96C129.404 9.16 129.384 9.26 129.384 9.26C129.464 9.46 129.424 9.66 129.264 9.86C129.104 10.06 128.964 10.24 128.844 10.4C128.724 10.6 128.564 11.02 128.364 11.66C128.204 12.26 128.024 12.96 127.824 13.76C127.664 14.52 127.524 15.22 127.404 15.86C127.284 16.46 127.224 16.86 127.224 17.06C127.304 17.34 126.944 17.5 126.144 17.54C125.384 17.54 124.664 17.42 123.984 17.18C123.104 16.86 122.544 16.44 122.304 15.92C122.104 15.4 122.224 14.38 122.664 12.86C123.224 11.02 123.544 9.66 123.624 8.78C123.704 7.9 123.464 7.24 122.904 6.8C122.704 6.44 122.264 6.22 121.584 6.14C120.904 6.02 120.344 6.1 119.904 6.38C119.304 6.62 118.484 7.18 117.444 8.06C116.404 8.9 115.324 9.9 114.204 11.06C113.084 12.22 112.084 13.42 111.204 14.66C109.364 17.22 107.964 19.78 107.004 22.34C106.044 24.9 105.504 27.36 105.384 29.72C105.264 32.08 105.544 34.3 106.224 36.38C106.304 36.54 106.544 36.88 106.944 37.4C107.344 37.92 107.664 38.26 107.904 38.42C109.144 38.7 110.924 38.72 113.244 38.48C114.964 38.16 116.224 37.68 117.024 37.04C117.864 36.4 118.664 35.52 119.424 34.4C119.864 33.76 120.344 33.5 120.864 33.62C121.384 33.7 121.844 34.02 122.244 34.58C122.644 35.1 122.884 35.72 122.964 36.44C122.964 36.64 122.784 37.06 122.424 37.7C122.104 38.3 121.724 38.88 121.284 39.44C120.884 40 120.564 40.32 120.324 40.4C120.164 40.44 120.064 40.48 120.024 40.52C120.024 40.56 120.044 40.68 120.084 40.88C120.084 41.04 119.824 41.28 119.304 41.6C118.784 41.92 118.124 42.24 117.324 42.56C116.524 42.92 115.664 43.22 114.744 43.46C113.824 43.74 112.964 43.94 112.164 44.06ZM134.677 41.54C134.157 41.58 133.737 41.52 133.417 41.36C133.097 41.24 132.697 41.04 132.217 40.76C131.337 40.08 130.597 39.24 129.997 38.24C129.437 37.24 129.177 36.4 129.217 35.72C129.297 35.36 129.297 35.04 129.217 34.76C129.177 34.48 129.157 34.34 129.157 34.34C128.917 34.14 128.837 34.02 128.917 33.98C128.997 33.9 129.057 33.78 129.097 33.62C129.417 33.54 129.457 33.32 129.217 32.96C129.097 32.64 129.157 31.92 129.397 30.8C129.677 29.64 130.037 28.56 130.477 27.56C130.677 27.12 130.957 26.54 131.317 25.82C131.717 25.1 132.157 24.38 132.637 23.66C133.117 22.9 133.557 22.3 133.957 21.86C134.837 20.86 135.617 20.04 136.297 19.4C137.017 18.76 137.817 18.28 138.697 17.96C139.497 17.64 140.297 17.5 141.097 17.54C141.937 17.58 142.677 17.86 143.317 18.38C144.277 18.66 145.137 19.1 145.897 19.7C146.657 20.26 147.177 21.06 147.457 22.1C147.777 23.26 147.877 24.64 147.757 26.24C147.677 27.8 146.997 29.82 145.717 32.3C144.957 33.86 144.197 35.12 143.437 36.08C142.717 37.04 141.837 37.96 140.797 38.84C140.037 39.48 139.057 40.04 137.857 40.52C136.657 41 135.597 41.34 134.677 41.54ZM139.897 32.48C140.417 31.76 140.817 31.06 141.097 30.38C141.417 29.7 141.717 28.76 141.997 27.56C142.117 27.12 142.177 26.58 142.177 25.94C142.217 25.3 142.197 24.72 142.117 24.2C142.077 23.64 141.937 23.34 141.697 23.3C141.177 23.1 140.637 23.1 140.077 23.3C139.557 23.46 138.937 23.94 138.217 24.74C137.577 25.46 137.057 26.14 136.657 26.78C136.297 27.38 135.957 28.12 135.637 29C135.357 29.84 135.037 30.94 134.677 32.3C134.357 33.62 134.337 34.68 134.617 35.48C134.937 36.28 135.537 36.5 136.417 36.14C137.297 35.78 138.457 34.56 139.897 32.48ZM157.735 39.44C157.335 39.72 156.835 39.88 156.235 39.92C155.675 39.92 155.175 39.7 154.735 39.26C153.975 38.54 153.315 37.12 152.755 35C152.195 32.84 151.915 29.92 151.915 26.24C152.075 24.6 152.155 23.08 152.155 21.68C152.195 20.28 152.215 19.5 152.215 19.34C152.655 19.06 153.215 18.98 153.895 19.1C154.615 19.18 155.195 19.32 155.635 19.52C156.035 19.72 156.315 20.02 156.475 20.42C156.675 20.82 156.795 21.54 156.835 22.58C156.915 23.58 156.955 25.12 156.955 27.2C156.835 28.8 156.755 30.08 156.715 31.04C156.675 32 156.715 32.56 156.835 32.72C156.995 33 157.075 33.16 157.075 33.2C157.075 33.2 157.375 32.9 157.975 32.3C158.295 31.86 158.635 31.28 158.995 30.56C159.395 29.84 159.735 29.26 160.015 28.82C160.455 28.26 160.855 27.72 161.215 27.2C161.615 26.68 161.895 26.34 162.055 26.18C162.215 25.86 162.415 25.56 162.655 25.28C162.895 25 163.095 24.72 163.255 24.44C163.695 23.68 164.155 23.06 164.635 22.58C165.115 22.06 165.435 21.8 165.595 21.8C165.755 21.92 166.055 21.9 166.495 21.74C166.935 21.54 167.235 21.44 167.395 21.44C167.675 21.16 168.055 21.16 168.535 21.44C168.695 21.56 168.835 21.7 168.955 21.86C169.075 21.98 169.135 22.12 169.135 22.28C169.135 22.48 169.015 22.98 168.775 23.78C168.575 24.54 168.315 25.3 167.995 26.06C167.715 26.78 167.475 27.2 167.275 27.32C167.275 27.32 167.215 27.38 167.095 27.5C166.975 27.62 166.835 27.76 166.675 27.92C166.595 28.2 166.315 28.72 165.835 29.48C165.395 30.2 164.835 31.04 164.155 32C163.515 32.92 162.855 33.84 162.175 34.76C161.495 35.64 160.895 36.42 160.375 37.1C159.975 37.66 159.515 38.16 158.995 38.6C158.475 39 158.055 39.28 157.735 39.44ZM181.978 39.8C180.778 40.48 179.498 40.88 178.138 41C176.818 41.08 175.578 40.9 174.418 40.46C173.258 39.98 172.318 39.28 171.598 38.36C171.198 37.84 170.818 37.02 170.458 35.9C170.098 34.74 170.038 33.18 170.278 31.22C170.518 29.38 171.078 27.52 171.958 25.64C172.878 23.76 173.998 22.1 175.318 20.66C176.638 19.22 178.078 18.24 179.638 17.72C180.198 17.52 180.758 17.38 181.318 17.3C181.918 17.18 182.698 17.16 183.658 17.24C184.578 17.36 185.398 17.6 186.118 17.96C186.838 18.28 187.358 18.64 187.678 19.04C188.318 19.68 188.738 20.3 188.938 20.9C189.138 21.5 189.218 22.08 189.178 22.64C188.978 23.92 188.398 25.3 187.438 26.78C186.518 28.26 185.218 29.36 183.538 30.08C182.858 30.36 182.058 30.54 181.138 30.62C180.218 30.7 178.958 30.58 177.358 30.26C176.398 30.06 175.758 30.16 175.438 30.56C175.158 30.96 175.038 31.74 175.078 32.9C175.158 33.62 175.318 34.26 175.558 34.82C175.838 35.34 176.338 35.7 177.058 35.9C177.978 36.06 178.638 36.08 179.038 35.96C179.438 35.8 179.938 35.58 180.538 35.3C180.858 35.1 181.158 34.88 181.438 34.64C181.758 34.4 182.058 34.16 182.338 33.92C182.658 33.68 182.918 33.5 183.118 33.38C183.318 33.22 183.518 33.12 183.718 33.08C183.918 33.04 184.118 33.02 184.318 33.02C184.758 33.06 185.178 33.3 185.578 33.74C185.978 34.18 186.238 34.6 186.358 35C186.358 35.32 186.158 35.78 185.758 36.38C185.358 36.94 184.818 37.54 184.138 38.18C183.498 38.78 182.778 39.32 181.978 39.8ZM181.198 26.42C181.478 26.3 181.878 26.02 182.398 25.58C182.958 25.14 183.458 24.68 183.898 24.2C184.338 23.68 184.558 23.28 184.558 23C184.558 22.56 184.258 22.18 183.658 21.86C183.098 21.54 182.358 21.48 181.438 21.68C181.118 21.76 180.738 21.98 180.298 22.34C179.858 22.7 179.418 23.12 178.978 23.6C178.538 24.04 178.158 24.48 177.838 24.92C177.518 25.32 177.298 25.64 177.178 25.88C177.338 26.08 177.658 26.24 178.138 26.36C178.618 26.48 179.138 26.54 179.698 26.54C180.298 26.54 180.798 26.5 181.198 26.42Z" fill="#1E1E1E"/>
</svg>
