<svg width="219" height="41" viewBox="0 0 219 41" fill="none" xmlns="http://www.w3.org/2000/svg">
<path d="M6.36 39.44C5.26667 39.44 4.44 39.2667 3.88 38.92C3.34667 38.6 2.98667 38.2267 2.8 37.8C2.64 37.3733 2.56 37.04 2.56 36.8C2.56 36.0267 2.90667 35.3867 3.6 34.88C4.32 34.3467 5.12 34.08 6 34.08C6.85333 34.08 7.90667 33.96 9.16 33.72C10.44 33.4533 11.7867 33.08 13.2 32.6C14.64 32.12 16.0133 31.52 17.32 30.8C18.6533 30.08 19.8133 29.2533 20.8 28.32C21.7867 27.3867 22.4667 26.36 22.84 25.24C22.2533 25.1333 21.6667 25.0533 21.08 25C20.4933 24.92 19.9067 24.88 19.32 24.88C17.3467 24.88 15.3067 25.0933 13.2 25.52C11.0933 25.9467 9 26.36 6.92 26.76C6.41333 26.8667 5.96 26.7733 5.56 26.48C5.50667 27.04 5.45333 27.56 5.4 28.04C5.37333 28.4933 5.34667 28.9867 5.32 29.52C5.26667 30.8267 5.14667 31.84 4.96 32.56C4.8 33.2533 4.61333 33.7467 4.4 34.04C4.18667 34.3333 3.96 34.5067 3.72 34.56C3.48 34.6133 3.25333 34.64 3.04 34.64C2.96 34.64 2.90667 34.64 2.88 34.64C2.4 34.64 1.94667 34.52 1.52 34.28C1.09333 34.04 0.746667 33.5467 0.48 32.8C0.213334 32.0267 0.0800002 30.8667 0.0800002 29.32C0.0800002 24.4133 0.613334 20.2533 1.68 16.84C2.77333 13.4 4.33333 10.7867 6.36 9C8.41333 7.18667 10.8667 6.28 13.72 6.28C15.96 6.28 17.7067 6.89333 18.96 8.12C20.2133 9.32 20.84 11.0533 20.84 13.32C20.84 14.4667 20.6133 15.6133 20.16 16.76C19.7067 17.9067 19.0667 19.04 18.24 20.16C18.7467 20.0533 19.24 19.9733 19.72 19.92C20.2 19.84 20.6533 19.8 21.08 19.8C23.5867 19.8 25.44 20.2533 26.64 21.16C27.84 22.04 28.44 23.2267 28.44 24.72C28.44 26.2133 28.0133 27.6133 27.16 28.92C26.3333 30.2267 25.2267 31.4267 23.84 32.52C22.48 33.5867 20.9733 34.56 19.32 35.44C17.6667 36.2933 16.0133 37.0267 14.36 37.64C12.7067 38.2267 11.1733 38.6667 9.76 38.96C8.34667 39.28 7.21333 39.44 6.36 39.44ZM6.04 22.36C6.2 22.28 6.37333 22.2267 6.56 22.2C8.96 21.8 10.8 21.2533 12.08 20.56C13.36 19.8667 14.24 19 14.72 17.96C15.2 16.92 15.44 15.68 15.44 14.24C15.44 13.8667 15.3867 13.4667 15.28 13.04C15.1733 12.6133 14.96 12.2533 14.64 11.96C14.3467 11.64 13.8933 11.48 13.28 11.48C11.2533 11.48 9.66667 12.4 8.52 14.24C7.4 16.0533 6.57333 18.76 6.04 22.36ZM40.3625 39.32C38.4692 39.32 36.9492 38.6533 35.8025 37.32C34.6558 35.96 34.0825 34.1467 34.0825 31.88C34.0825 31.16 34.1758 30.4267 34.3625 29.68C34.5758 28.9333 34.8292 28.24 35.1225 27.6C34.9625 27.36 34.8292 27.0533 34.7225 26.68C34.6425 26.28 34.6025 25.8133 34.6025 25.28C34.6025 23.5467 34.9092 21.96 35.5225 20.52C36.1358 19.0533 36.9625 17.7867 38.0025 16.72C39.0425 15.6533 40.1892 14.8267 41.4425 14.24C42.6958 13.6533 43.9625 13.36 45.2425 13.36C47.4292 13.36 49.2158 14.0933 50.6025 15.56C52.0158 17.0267 52.7225 19.3067 52.7225 22.4C52.7225 23.9467 52.4825 25.52 52.0025 27.12C51.5225 28.72 50.8692 30.2533 50.0425 31.72C49.2425 33.16 48.3092 34.4533 47.2425 35.6C46.2025 36.7467 45.0825 37.6533 43.8825 38.32C42.7092 38.9867 41.5358 39.32 40.3625 39.32ZM39.7225 25.8C39.8558 26.0933 39.9225 26.44 39.9225 26.84C39.9225 27.24 39.8425 27.6533 39.6825 28.08C39.5225 28.5067 39.3625 29.08 39.2025 29.8C39.0425 30.4933 38.9625 31.4933 38.9625 32.8C38.9625 33.1467 39.0025 33.44 39.0825 33.68C39.1892 33.8933 39.4158 34 39.7625 34C40.6692 34 41.5225 33.7067 42.3225 33.12C43.1492 32.5333 43.8825 31.76 44.5225 30.8C45.1892 29.84 45.7492 28.7733 46.2025 27.6C46.6825 26.4 47.0425 25.1867 47.2825 23.96C47.5492 22.7067 47.6825 21.5467 47.6825 20.48C47.6825 19.7867 47.5492 19.3067 47.2825 19.04C47.0158 18.7733 46.5492 18.64 45.8825 18.64C44.9758 18.64 44.0425 18.9333 43.0825 19.52C42.1492 20.08 41.3625 20.8533 40.7225 21.84C40.0825 22.8 39.7625 23.8933 39.7625 25.12C39.7625 25.36 39.7492 25.5867 39.7225 25.8ZM63.6047 39.32C61.7114 39.32 60.1914 38.6533 59.0447 37.32C57.898 35.96 57.3247 34.1467 57.3247 31.88C57.3247 31.16 57.418 30.4267 57.6047 29.68C57.818 28.9333 58.0714 28.24 58.3647 27.6C58.2047 27.36 58.0714 27.0533 57.9647 26.68C57.8847 26.28 57.8447 25.8133 57.8447 25.28C57.8447 23.5467 58.1514 21.96 58.7647 20.52C59.378 19.0533 60.2047 17.7867 61.2447 16.72C62.2847 15.6533 63.4314 14.8267 64.6847 14.24C65.938 13.6533 67.2047 13.36 68.4847 13.36C70.6714 13.36 72.458 14.0933 73.8447 15.56C75.258 17.0267 75.9647 19.3067 75.9647 22.4C75.9647 23.9467 75.7247 25.52 75.2447 27.12C74.7647 28.72 74.1114 30.2533 73.2847 31.72C72.4847 33.16 71.5514 34.4533 70.4847 35.6C69.4447 36.7467 68.3247 37.6533 67.1247 38.32C65.9514 38.9867 64.778 39.32 63.6047 39.32ZM62.9647 25.8C63.098 26.0933 63.1647 26.44 63.1647 26.84C63.1647 27.24 63.0847 27.6533 62.9247 28.08C62.7647 28.5067 62.6047 29.08 62.4447 29.8C62.2847 30.4933 62.2047 31.4933 62.2047 32.8C62.2047 33.1467 62.2447 33.44 62.3247 33.68C62.4314 33.8933 62.658 34 63.0047 34C63.9114 34 64.7647 33.7067 65.5647 33.12C66.3914 32.5333 67.1247 31.76 67.7647 30.8C68.4314 29.84 68.9914 28.7733 69.4447 27.6C69.9247 26.4 70.2847 25.1867 70.5247 23.96C70.7914 22.7067 70.9247 21.5467 70.9247 20.48C70.9247 19.7867 70.7914 19.3067 70.5247 19.04C70.258 18.7733 69.7914 18.64 69.1247 18.64C68.218 18.64 67.2847 18.9333 66.3247 19.52C65.3914 20.08 64.6047 20.8533 63.9647 21.84C63.3247 22.8 63.0047 23.8933 63.0047 25.12C63.0047 25.36 62.9914 25.5867 62.9647 25.8ZM102.311 40.92C100.498 40.92 98.8179 40.5333 97.2713 39.76C95.7246 39.0133 94.3113 38.0267 93.0313 36.8C91.7513 35.5467 90.6046 34.1867 89.5913 32.72C88.6046 31.2267 87.7646 29.76 87.0713 28.32C86.7513 29.7867 86.4579 31.04 86.1913 32.08C85.9513 33.12 85.7513 33.9867 85.5913 34.68C85.4579 35.2133 85.3113 35.7333 85.1513 36.24C85.0179 36.7467 84.8046 37.16 84.5113 37.48C84.2179 37.8 83.8046 37.96 83.2713 37.96C82.1246 37.96 81.3913 37.5733 81.0713 36.8C80.7513 36 80.5913 34.9867 80.5913 33.76C80.5913 32.6667 80.7646 31.2267 81.1113 29.44C81.4846 27.6533 81.9779 25.6533 82.5913 23.44C83.2046 21.2267 83.9113 18.9467 84.7113 16.6C85.5379 14.2267 86.4179 11.92 87.3513 9.68C88.2846 7.41333 89.2179 5.36 90.1513 3.52C90.7379 2.4 91.2579 1.69333 91.7113 1.4C92.1646 1.08 92.6979 0.919998 93.3113 0.919998C93.9246 0.919998 94.3913 1.08 94.7113 1.4C95.0313 1.72 95.1913 2.14666 95.1913 2.68C95.1913 3.02666 95.1113 3.37333 94.9513 3.72C94.7913 4.06666 94.6179 4.49333 94.4313 5C93.8179 6.36 93.1779 7.94666 92.5113 9.76C91.8446 11.5467 91.2046 13.4 90.5913 15.32C89.9779 17.2133 89.4313 19.0133 88.9513 20.72C90.2579 19.9467 91.7113 19.2 93.3113 18.48C94.9113 17.7333 96.5246 17.0667 98.1512 16.48C99.8046 15.8667 101.351 15.3867 102.791 15.04C104.231 14.6933 105.445 14.52 106.431 14.52C107.205 14.52 107.791 14.7467 108.191 15.2C108.591 15.6533 108.791 16.1467 108.791 16.68C108.791 17.08 108.671 17.48 108.431 17.88C108.191 18.28 107.685 18.6267 106.911 18.92C104.351 19.7733 101.805 20.64 99.2713 21.52C96.7646 22.4 93.9779 23.44 90.9113 24.64C91.5513 25.8933 92.2979 27.1867 93.1513 28.52C94.0046 29.8267 94.9246 31.0533 95.9113 32.2C96.8979 33.32 97.9113 34.24 98.9513 34.96C99.9913 35.6533 101.018 36 102.031 36C103.525 36 104.965 35.7067 106.351 35.12C107.738 34.5067 109.018 33.7733 110.191 32.92C111.365 32.04 112.391 31.1867 113.271 30.36C114.178 29.5333 114.885 28.8933 115.391 28.44C115.685 28.1467 115.965 27.9333 116.231 27.8C116.525 27.6667 116.885 27.6 117.311 27.6C117.818 27.6 118.205 27.76 118.471 28.08C118.765 28.3733 118.898 28.76 118.871 29.24C118.845 29.6933 118.618 30.1467 118.191 30.6C117.845 30.9733 117.298 31.5733 116.551 32.4C115.831 33.2 114.951 34.0933 113.911 35.08C112.898 36.04 111.765 36.9733 110.511 37.88C109.285 38.76 107.978 39.48 106.591 40.04C105.205 40.6267 103.778 40.92 102.311 40.92ZM136.263 30.84C137.089 30.84 137.676 31.0667 138.023 31.52C138.369 31.9467 138.543 32.4 138.543 32.88C138.543 33.5467 138.209 34.2533 137.543 35C136.876 35.7467 136.009 36.44 134.943 37.08C133.903 37.6933 132.783 38.2 131.583 38.6C130.383 39 129.236 39.2 128.143 39.2C126.516 39.2 124.956 38.76 123.463 37.88C121.996 36.9733 120.796 35.7067 119.863 34.08C118.956 32.4533 118.503 30.52 118.503 28.28C118.503 26.44 118.849 24.6133 119.543 22.8C120.263 20.9867 121.209 19.24 122.383 17.56C123.583 15.88 124.889 14.32 126.303 12.88C127.743 11.44 129.183 10.1867 130.623 9.12C132.089 8.05333 133.436 7.22667 134.663 6.64C135.889 6.02667 136.876 5.72 137.623 5.72C138.556 5.72 139.249 5.96 139.703 6.44C140.183 6.89333 140.423 7.53333 140.423 8.36C140.423 9.02667 140.289 9.54667 140.023 9.92C139.783 10.2667 139.396 10.5733 138.863 10.84C137.156 11.72 135.423 12.7867 133.663 14.04C131.929 15.2933 130.343 16.68 128.903 18.2C127.463 19.6933 126.303 21.2667 125.423 22.92C124.543 24.5733 124.103 26.2533 124.103 27.96C124.103 29.8267 124.476 31.24 125.223 32.2C125.969 33.16 126.983 33.64 128.263 33.64C128.903 33.64 129.596 33.5067 130.343 33.24C131.089 32.9467 131.823 32.6133 132.543 32.24C133.289 31.8667 133.983 31.5467 134.622 31.28C135.289 30.9867 135.836 30.84 136.263 30.84ZM150.753 39.32C148.86 39.32 147.34 38.6533 146.193 37.32C145.046 35.96 144.473 34.1467 144.473 31.88C144.473 31.16 144.566 30.4267 144.753 29.68C144.966 28.9333 145.22 28.24 145.513 27.6C145.353 27.36 145.22 27.0533 145.113 26.68C145.033 26.28 144.993 25.8133 144.993 25.28C144.993 23.5467 145.3 21.96 145.913 20.52C146.526 19.0533 147.353 17.7867 148.393 16.72C149.433 15.6533 150.58 14.8267 151.833 14.24C153.086 13.6533 154.353 13.36 155.633 13.36C157.82 13.36 159.606 14.0933 160.993 15.56C162.406 17.0267 163.113 19.3067 163.113 22.4C163.113 23.9467 162.873 25.52 162.393 27.12C161.913 28.72 161.26 30.2533 160.433 31.72C159.633 33.16 158.7 34.4533 157.633 35.6C156.593 36.7467 155.473 37.6533 154.273 38.32C153.1 38.9867 151.926 39.32 150.753 39.32ZM150.113 25.8C150.246 26.0933 150.313 26.44 150.313 26.84C150.313 27.24 150.233 27.6533 150.073 28.08C149.913 28.5067 149.753 29.08 149.593 29.8C149.433 30.4933 149.353 31.4933 149.353 32.8C149.353 33.1467 149.393 33.44 149.473 33.68C149.58 33.8933 149.806 34 150.153 34C151.06 34 151.913 33.7067 152.713 33.12C153.54 32.5333 154.273 31.76 154.913 30.8C155.58 29.84 156.14 28.7733 156.593 27.6C157.073 26.4 157.433 25.1867 157.673 23.96C157.94 22.7067 158.073 21.5467 158.073 20.48C158.073 19.7867 157.94 19.3067 157.673 19.04C157.406 18.7733 156.94 18.64 156.273 18.64C155.366 18.64 154.433 18.9333 153.473 19.52C152.54 20.08 151.753 20.8533 151.113 21.84C150.473 22.8 150.153 23.8933 150.153 25.12C150.153 25.36 150.14 25.5867 150.113 25.8ZM173.414 37.96C172.721 37.96 172.107 37.6267 171.574 36.96C171.067 36.2933 170.681 35.2667 170.414 33.88C170.201 32.7067 170.014 31.3733 169.854 29.88C169.694 28.3867 169.547 26.92 169.414 25.48C169.307 24.0133 169.227 22.7333 169.174 21.64C169.121 20.5467 169.094 19.8 169.094 19.4C169.094 17.96 169.347 16.7733 169.854 15.84C170.361 14.88 171.334 14.4 172.774 14.4C173.387 14.4 173.854 14.6667 174.174 15.2C174.494 15.7067 174.654 16.4133 174.654 17.32C174.654 17.88 174.654 18.5867 174.654 19.44C174.681 20.2667 174.707 21.2 174.734 22.24C174.761 23.3867 174.787 24.6267 174.814 25.96C174.867 27.2667 174.894 28.5733 174.894 29.88C175.827 28.4133 176.827 26.8533 177.894 25.2C178.961 23.52 180.001 21.8933 181.014 20.32C182.054 18.7467 182.987 17.36 183.814 16.16C184.641 14.9333 185.267 14.0667 185.694 13.56C186.067 13.1067 186.521 12.72 187.054 12.4C187.587 12.0533 188.147 11.88 188.734 11.88C189.374 11.88 189.907 12.1333 190.334 12.64C190.761 13.1467 190.974 13.7333 190.974 14.4C190.974 14.9067 190.867 15.3867 190.654 15.84C190.467 16.2933 190.227 16.72 189.934 17.12C189.134 18.24 188.187 19.5467 187.094 21.04C186.027 22.5333 184.907 24.1067 183.734 25.76C182.561 27.3867 181.414 28.96 180.294 30.48C179.201 32 178.227 33.3467 177.374 34.52C176.681 35.5067 176.121 36.2533 175.694 36.76C175.267 37.24 174.881 37.56 174.534 37.72C174.214 37.88 173.841 37.96 173.414 37.96ZM197.331 39.36C195.677 39.36 194.344 38.7867 193.331 37.64C192.317 36.4667 191.811 34.5867 191.811 32C191.811 30.3467 191.997 28.6933 192.371 27.04C192.771 25.36 193.317 23.7733 194.011 22.28C194.731 20.76 195.557 19.4133 196.491 18.24C197.451 17.0667 198.504 16.1467 199.651 15.48C200.797 14.7867 201.984 14.44 203.211 14.44C205.291 14.44 206.917 15 208.091 16.12C209.264 17.24 209.851 18.6667 209.851 20.4C209.851 21.7333 209.477 22.9467 208.731 24.04C208.011 25.1067 207.024 26.0667 205.771 26.92C204.517 27.7733 203.117 28.5467 201.571 29.24C200.024 29.9333 198.437 30.56 196.811 31.12C196.677 32.08 196.611 32.9333 196.611 33.68C196.611 34.1333 196.864 34.36 197.371 34.36C198.571 34.36 199.851 34.1733 201.211 33.8C202.597 33.4 203.997 32.8933 205.411 32.28C206.824 31.64 208.184 30.9867 209.491 30.32C210.797 29.6267 211.984 28.9733 213.051 28.36C214.144 27.72 215.037 27.2133 215.731 26.84C216.451 26.44 216.917 26.24 217.131 26.24C217.717 26.24 218.144 26.4133 218.411 26.76C218.677 27.1067 218.811 27.48 218.811 27.88C218.811 28.0667 218.451 28.48 217.731 29.12C217.037 29.76 216.077 30.52 214.851 31.4C213.651 32.2533 212.291 33.1467 210.771 34.08C209.277 34.9867 207.717 35.8533 206.091 36.68C204.491 37.48 202.931 38.12 201.411 38.6C199.917 39.1067 198.557 39.36 197.331 39.36ZM197.491 27.56C198.584 26.92 199.664 26.2533 200.731 25.56C201.824 24.84 202.731 24.04 203.451 23.16C204.171 22.2533 204.531 21.2 204.531 20C204.531 19.6533 204.437 19.4267 204.251 19.32C204.064 19.1867 203.797 19.12 203.451 19.12C202.517 19.12 201.664 19.5333 200.891 20.36C200.144 21.1867 199.477 22.2533 198.891 23.56C198.331 24.84 197.864 26.1733 197.491 27.56Z" fill="#1E1E1E"/>
</svg>
